<svg width="2007" height="1570" fill="none" xmlns="http://www.w3.org/2000/svg"><path fill-rule="evenodd" clip-rule="evenodd" d="M1818.79 891.08c21.38-15.294 42.15-27.529 55.61-30.54-162.2-139.289-460.24-382.191-698.75-575.279-34.01-27.527-69.85-54.48-102.86-79.306l-6.26-4.712-69.803-53.744C911.552 78.189 856.493 16.988 849.239 7.321c-4.265-5.684-16.925-6.066-24.178-4.58-45.939 9.414-123.332 35.593-161.993 52.917l-379.6 596.966L94.691 990.985c27.888 36.145 63.235 74.125 105.523 111.175 28.649 25.1 60.484 49.77 95.343 73.15a965.72 965.72 0 0094.295 55.73c24.682 12.76 44.436 26.15 63.387 38.99l1.353.92c.988.67 1.974 1.34 2.959 2 34.386 23.27 67.145 44.43 123.309 56.34 8.466 1.8 17.351 3.41 26.597 4.85 65.265 10.14 148.542 11.58 229.693 7.43 4.036-.21 8.066-.43 12.089-.66 42.994-2.5 85.105-6.53 123.309-11.62 33.122-4.41 64.862-6.12 96.412-7.82 37.59-2.03 74.9-4.04 113.94-10.58 40.15-6.73 82.14-18.27 128.14-39.55 8.11-3.75 17.05-8.45 26.6-13.85 32.99-18.69 73.21-45.8 110.92-71.23l.02-.01.07-.05c10.8-7.28 21.4-14.43 31.57-21.2 14.9-9.92 28.87-19.04 41.17-26.59 12.15-7.45 25.38-12.86 38.74-18.33 15.62-6.4 31.42-12.87 45.89-22.75 22.73-15.53 41.63-36.16 60.34-58.01 3.27-3.82 6.53-7.67 9.81-11.54 19.18-22.65 38.82-45.847 62.83-65.427 10.38-15.051 45.87-47.011 79.79-71.273zM885.507 396.436c-4.03 39.476-9.672 121.327 0 132.928 12.089 14.501 29.013 29.002 67.699 29.002 30.948 0 43.521-33.836 45.938-50.754-22.566-37.059-76.886-111.176-113.637-111.176zM631.635 253.841c-26.596 29.002-75.92 101.025-79.788 128.094-3.869 27.069 24.178 34.642 41.103 38.67 12.089.805 35.783-2.9 53.192-14.501 17.408-11.601-.806-105.537-14.507-152.263zm-96.714 321.443c-51.58 46.726-139.267 145.979-77.37 169.181C519.447 767.667 559.1 725.13 559.1 710.629c.806-34.642.966-108.276-24.179-135.345zm261.126 96.675c-21.76 50.754-53.192 149.362-33.85 166.764 24.179 21.752 38.686 24.168 67.7 21.752 29.013-2.417 50.774-19.335 55.61-29.003.732-1.463 1.685-2.982 2.726-4.64 5.837-9.295 14.42-22.966 2.109-55.781-16.851-44.919-62.863-84.591-94.295-99.092zm357.843 0c0 74.923 17.89 213.168 89.45 166.764 71.57-46.404-29.81-130.511-89.45-166.764zM302.811 855.641c-47.551 42.698-121.375 135.344-36.268 164.349 85.108 29 59.64-97.482 36.268-164.349zm265.961 128.094c-41.103 62.035-98.648 188.515 0 198.185 98.647 9.67 41.103-128.1 0-198.185zm411.03-21.752C943.535 1049.8 900.981 1213.34 1020.9 1165c119.93-48.34 22.57-155.49-41.098-203.017zm357.838-79.757c11.28 71.701 55.13 199.634 140.23 137.764 85.11-61.874-58.02-117.623-140.23-137.764z" fill="red"/><path d="M1122.45 386.768c13.7-12.89 44.98-38.186 60.45-36.253m48.36 128.095c4.03-11.279 18.85-34.32 45.93-36.253m145.07 195.766l65.29-41.087m53.19 99.092l41.1-36.253m60.45 137.761l55.61-33.836M796.047 94.328l45.939-31.42m12.089 106.343c3.224-12.89 18.375-38.67 53.192-38.67m41.103 140.178c16.119-10.473 51.258-36.253 62.86-36.253M663.068 55.658c29.929 35.403 96.205 99.076 186.171 171.598 54.085 43.598 124.453 91.406 178.921 135.344 193.81 156.35 521.61 433.054 710.84 599.753M663.068 55.658c38.661-17.324 116.054-43.504 161.993-52.916 7.253-1.487 19.913-1.105 24.178 4.579 7.254 9.667 62.313 70.868 147.488 140.178m-333.659-91.84l-379.6 596.965L94.691 990.985M1884.07 1097.33c-10-13.84-65.19-64.61-145.07-134.977m145.07 134.977c-12.79 23.79-27.76 46.25-44.7 67.67m44.7-67.67c25.82-19.36 67.61-58.62 94.83-89.43M996.727 147.499c19.693 15.971 43.753 34.149 69.803 53.744m-69.803-53.744l69.803 53.744m109.12 84.018l-109.12-84.018m109.12 84.018c238.51 193.088 536.55 435.99 698.75 575.279m-698.75-575.279c-34.01-27.527-69.85-54.48-102.86-79.306m-6.26-4.712c2.07 1.562 4.16 3.132 6.26 4.712m-6.26-4.712l6.26 4.712M1739 962.353c10.38-15.051 45.87-47.011 79.79-71.273M1739 962.353c-24.01 19.58-43.65 42.777-62.83 65.427-3.28 3.87-6.54 7.72-9.81 11.54m208.04-178.78c33.95 29.156 61.95 53.771 82.2 72.441 12.07 11.125 24.95 20.138 34.38 26.742 8.77 6.134 14.56 10.19 13.98 11.928-2.55 7.644-12.5 20.899-26.06 36.249m-104.5-147.36c-13.46 3.011-34.23 15.246-55.61 30.54M94.691 990.985L3 1155.33c36.864 55.57 78.224 104.3 123.309 146.84M94.691 990.985c27.888 36.145 63.235 74.125 105.523 111.175m772.334 227.13l93.982 230.88m-93.982-230.88c-38.204 5.09-80.315 9.12-123.309 11.62-4.023.23-8.053.45-12.089.66m135.398-12.28c33.122-4.41 64.862-6.12 96.412-7.82 37.59-2.03 74.9-4.04 113.94-10.58m423.12-213.56L1739 1264.65m-132.98-167.32c22.73-15.53 41.63-36.16 60.34-58.01m-60.34 58.01c-14.47 9.88-30.27 16.35-45.89 22.75-13.36 5.47-26.59 10.88-38.74 18.33-12.3 7.55-26.27 16.67-41.17 26.59m-297.32 145.89c40.15-6.73 82.14-18.27 128.14-39.55 8.11-3.75 17.05-8.45 26.6-13.85m-154.74 53.4l94.29 220.97m0 0c19.66-4.68 39.02-10.1 58.03-16.41 40.12-13.32 78.82-32.92 116.06-55.06m-174.09 71.47c-67.73 16.15-138.87 23.52-210.66 28.31m384.75-99.78l-113.64-202.9m113.64 202.9c35.6-21.16 69.86-44.65 102.77-67.21l.02-.01.01-.01.01-.01h0m-216.45-135.66c32.99-18.69 73.21-45.8 110.92-71.23h0l.02-.01m31.64-21.25l101.62 209.2M1480.22 1165c-10.17 6.77-20.77 13.92-31.57 21.2m133.19 188c13.12-8.89 26.02-17.47 38.69-25.52 43.02-27.34 82.75-54.99 118.47-84.03m-157.16 109.55c-9.06 6.14-18.24 12.43-27.52 18.79M1739 1264.65c38.38-31.19 72.13-63.97 100.37-99.65m-173.01-125.68L1839.37 1165m-772.84 395.17c-29.77 1.98-59.65 3.52-89.445 5.06h-.011m-369.617-231.09c-9.246-1.44-18.131-3.05-26.597-4.85-56.164-11.91-88.923-33.07-123.309-56.34m149.906 61.19l24.178 204.62m-24.178-204.62c65.265 10.14 148.542 11.58 229.693 7.43m-205.515 197.19c24.78 4.19 49.781 7.68 74.952 10.52 15.3 1.73 30.848 3.67 46.55 5.63 44.416 5.54 90.061 11.24 134.787 12.72m-256.289-28.87c-59.549-10.07-117.818-24.15-174.084-42.85m0 0v-222.96m0 222.96c-72.324-24.03-141.34-55.7-205.515-96.28m205.515-126.68c-.985-.66-1.971-1.33-2.959-2m-159.035-95.64a965.72 965.72 0 0094.295 55.73c24.682 12.76 44.436 26.15 63.387 38.99m-157.682-94.72l-43.521 224.32m43.521-224.32c-34.859-23.38-66.694-48.05-95.343-73.15m51.822 297.47c-44.395-28.08-86.473-60.42-125.727-97.46m73.905-200.01l-73.905 200.01M1818.79 891.08l160.11 116.82M977.035 1565.23h.039m-.039 0h-.065m.065 0h-.065m.065 0h.039m577.016-172.08l.09-.06m-.09.06l.09-.06m.14-.1l-.14.1m.14-.1c-.05.03-.09.07-.14.1m-577.21 172.14l-.061.01m.061-.01c-.02 0-.041.01-.061.01m0 0h-.072m.072 0h-.072m0 0c-12.734.66-25.452 1.31-38.138 2-16.711.91-33.675.96-50.775.39m-434.685-297.6l1.353.92m-1.353-.92c.451.31.902.61 1.353.92m993.988-84.7l.07-.05m-.07.05c.02-.02.04-.03.07-.05m-611.5 155.37l50.774 226.06m-60.445-820.748l-2.418 36.253 24.179 26.585 7.253-33.836-29.014-29.002zM573.607 1039.32v77.34h33.85l-33.85-77.34zm444.883 12.09l21.76 50.75 19.34-12.08-24.18-43.51-16.92 4.84zm372.34-116.013l26.6 43.504h12.09l7.25-12.084c-2.42-1.611-7.25-6.284-7.25-12.085 0-5.8-6.45-13.695-9.67-16.918l-9.67-2.417-14.51-2.416-4.84 2.416zM295.557 918.479c-4.835 8.862-14.506 28.519-14.506 36.253 0 2.715-.382 7.525-.823 13.094-1.131 14.264-2.655 33.504.823 35.244 1.141.57 2.283 1.41 3.488 2.3 3.9 2.87 8.465 6.23 15.854 2.53 9.671-4.83.001-84.587-4.836-89.421zm232.111-290.024c-.806 23.363-5.803 72.506-19.342 82.174-13.54 9.667 7.253-50.754 19.342-82.174zm94.296-290.024c-8.06 11.279-22.244 35.77-14.507 43.504 7.737 7.734 17.73 0 21.76-4.834-.806-12.084-3.385-36.736-7.253-38.67zm321.57 140.179c-4.029 11.278-9.187 34.802 2.418 38.669 11.606 3.867 14.507-12.889 14.507-21.751-2.418-8.862-9.188-24.652-16.925-16.918zm263.546 263.438c0 14.501 2.9 43.987 14.5 45.921 11.61 1.933-4.83-29.808-14.5-45.921zM631.635 253.841c-26.596 29.002-75.92 101.025-79.788 128.094-3.869 27.069 24.178 34.642 41.103 38.67 12.089.805 35.783-2.9 53.192-14.501 17.408-11.601-.806-105.537-14.507-152.263zm253.872 142.595c-4.03 39.476-9.672 121.327 0 132.928 12.089 14.501 29.013 29.002 67.699 29.002 30.948 0 43.521-33.836 45.938-50.754-22.566-37.059-76.886-111.176-113.637-111.176zm-89.46 275.523c-21.76 50.754-53.192 149.362-33.85 166.764 24.179 21.752 38.686 24.168 67.7 21.752 29.013-2.417 50.774-19.335 55.61-29.003.732-1.463 1.685-2.982 2.726-4.64 5.837-9.295 14.42-22.966 2.109-55.781-16.851-44.919-62.863-84.591-94.295-99.092zm357.843 0c0 74.923 17.89 213.168 89.45 166.764 71.57-46.404-29.81-130.511-89.45-166.764zm183.75 210.267c11.28 71.701 55.13 199.634 140.23 137.764 85.11-61.874-58.02-117.623-140.23-137.764zm-357.838 79.757C943.535 1049.8 900.981 1213.34 1020.9 1165c119.93-48.34 22.57-155.49-41.098-203.017zm-411.03 21.752c-41.103 62.035-98.648 188.515 0 198.185 98.647 9.67 41.103-128.1 0-198.185zM302.811 855.641c-47.551 42.698-121.375 135.344-36.268 164.349 85.108 29 59.64-97.482 36.268-164.349zm232.11-280.357c-51.58 46.726-139.267 145.979-77.37 169.181C519.447 767.667 559.1 725.13 559.1 710.629c.806-34.642.966-108.276-24.179-135.345z" stroke="#000" stroke-width="4"/></svg>