<svg xmlns="http://www.w3.org/2000/svg" viewBox="0 0 512 512"><path d="M274.827 213.911H126.655a7.5 7.5 0 00-7.5 7.5 7.5 7.5 0 007.5 7.5h148.172a7.5 7.5 0 000-15zm118.73-11.58a7.5 7.5 0 00-10.24-2.763l-35.106 20.188 3.225-11.691a7.5 7.5 0 00-14.46-3.988l-4.104 14.877a13.596 13.596 0 004.796 14.412c4.17 3.23 10.333 3.815 15.155 1.041l37.971-21.835a7.5 7.5 0 002.763-10.241zm-118.73 68.757H126.655a7.5 7.5 0 000 15h148.172a7.5 7.5 0 000-15zm118.73-11.579a7.499 7.499 0 00-10.24-2.763l-35.106 20.188 3.225-11.691a7.5 7.5 0 00-5.236-9.224 7.498 7.498 0 00-9.224 5.236l-4.104 14.877a13.595 13.595 0 004.797 14.412c4.183 3.24 10.318 3.822 15.155 1.041l37.971-21.835a7.5 7.5 0 002.762-10.241zm-118.73 68.756H126.655a7.5 7.5 0 000 15h148.172a7.5 7.5 0 000-15zm118.73-11.579a7.5 7.5 0 00-10.24-2.763l-35.106 20.188 3.225-11.692a7.5 7.5 0 00-5.236-9.224 7.498 7.498 0 00-9.224 5.236l-4.104 14.877a13.597 13.597 0 004.797 14.413c4.355 3.373 10.381 3.785 15.154 1.041l37.971-21.835a7.5 7.5 0 002.763-10.241zm-118.73 68.756H126.655a7.5 7.5 0 000 15h148.172a7.5 7.5 0 000-15zm118.73-11.579a7.499 7.499 0 00-10.24-2.763l-35.106 20.188 3.225-11.692a7.5 7.5 0 00-5.236-9.224 7.497 7.497 0 00-9.224 5.235l-4.104 14.877a13.596 13.596 0 004.797 14.413c4.354 3.373 10.379 3.787 15.154 1.041l37.971-21.835a7.5 7.5 0 002.763-10.24z"/><path d="M412.992 0H206.339c-1.963 0-3.912.81-5.303 2.196L69.006 134.227c-1.367 1.39-2.193 3.351-2.193 5.299v276.282a7.5 7.5 0 0015 0V147.026h95.08c16.553 0 30.598-10.942 35.283-25.973a36.958 36.958 0 001.664-10.975V15h199.153c9.481 0 17.194 7.718 17.194 17.204v101.604a7.5 7.5 0 0015 0V32.204C445.187 14.447 430.744 0 412.992 0zM198.84 110.079c0 11.9-9.97 21.947-21.947 21.947H92.42l106.42-106.42v84.473zm238.846 46.23a7.5 7.5 0 00-7.5 7.5v315.997c0 9.481-7.713 17.194-17.194 17.194H99.008c-9.481 0-17.194-7.713-17.194-17.194v-33.997a7.502 7.502 0 00-15.001 0v33.997c0 17.752 14.442 32.194 32.194 32.194h313.985c17.752 0 32.194-14.442 32.194-32.194V163.809a7.5 7.5 0 00-7.5-7.5z"/></svg>