<svg xmlns="http://www.w3.org/2000/svg" viewBox="0 0 480 480"><path d="M440 0H280c-22.08.026-39.974 17.92-40 40v112c.026 22.08 17.92 39.974 40 40h32v40a8 8 0 0012.8 6.4l61.864-46.4H440c22.08-.026 39.974-17.92 40-40V40c-.026-22.08-17.92-39.974-40-40zm24 152c0 13.255-10.745 24-24 24h-56a7.998 7.998 0 00-4.8 1.6L328 216v-32a8 8 0 00-8-8h-40c-13.255 0-24-10.745-24-24V40c0-13.255 10.745-24 24-24h160c13.255 0 24 10.745 24 24v112z"/><path d="M408 256h-67.504a24 24 0 00-23.288 18.176l-4.896 19.608-9.6 31.92-5.448 18.144-9.336-43.584c-5.628-25.753-28.376-44.149-54.736-44.264H184v-36.392A72.11 72.11 0 00216 160v-48c-.044-39.746-32.254-71.956-72-72H72a8 8 0 00-8 8 48 48 0 0014.608 34.256A71.733 71.733 0 0072 112v48a72.11 72.11 0 0032 59.608V256H56c-30.911.04-55.96 25.089-56 56v160a8 8 0 008 8h224a8 8 0 008-8v-90.952l7.768 29.112c7.268 27.199 35.209 43.356 62.408 36.088a50.976 50.976 0 0035.192-33.104l27.528-82.6 9.048-27.128C401.478 300.501 415.951 283.75 416 264a8 8 0 00-8-8zm-213.792 16L176 303.872 157.792 272h36.416zM152 294.12L166.784 320 152 345.872V294.12zM120 256v-28.16c1.496.536 3.032.976 4.56 1.408.36.104.712.232 1.08.328a71.403 71.403 0 007.664 1.544c.952.144 1.904.256 2.856.36 2.016.219 4.037.352 6.064.4.6 0 1.184.12 1.776.12s1.176-.104 1.776-.12a72.819 72.819 0 006.056-.4c.96-.104 1.912-.216 2.864-.36a71.302 71.302 0 007.704-1.52c.368-.096.72-.224 1.08-.328 1.528-.432 3.064-.872 4.56-1.408V256H120zm24-200c25.989.03 48.553 17.907 54.528 43.2l-16.872-16.864A8 8 0 00176 80h-64c-14.542-.144-27.209-9.955-30.984-24H144zM88 160v-48a55.81 55.81 0 013.912-20.488A48.407 48.407 0 0097 93.544c.32.104.648.168.968.272a47.685 47.685 0 005.6 1.36c.592.104 1.176.208 1.768.296A47.65 47.65 0 00112 96h60.688L200 123.312V160c0 30.928-25.072 56-56 56s-56-25.072-56-56zm24 112h18.208L112 303.872 93.792 272H112zm24 22.12v51.752L121.216 320 136 294.12zm194.232 113.96c-6.109 18.33-25.921 28.237-44.251 22.127a34.984 34.984 0 01-22.741-24.175l-23.512-88.096A8 8 0 00224 320v144H64V344H48v120H16V312c.026-22.08 17.92-39.974 40-40h19.36l29.696 52 32 56a8 8 0 0013.888 0l32-56 29.696-52h20.552c18.838.075 35.098 13.22 39.12 31.624l15.864 74.056a8 8 0 007.504 6.32 7.744 7.744 0 008-5.696L316.352 336h37.88l-24 72.08zM359.568 320h-38.4l4.784-16h38.944l-5.328 16zM376 288h-45.76l2.488-9.936a8 8 0 017.768-6.064h58.136A24.047 24.047 0 01376 288zm22.664-183.906A23.888 23.888 0 00393.872 96c8.825-9.807 8.029-24.911-1.778-33.736A23.888 23.888 0 00384 57.472V40h-16v16h-16V40h-16v16h-8a8 8 0 00-8 8v64a8 8 0 008 8h8v16h16v-16h16v16h16v-17.472c12.454-4.355 19.019-17.981 14.664-30.434zM376 120h-40v-16h40a8 8 0 010 16zm0-32h-40V72h40a8 8 0 010 16z"/><path d="M104 128h16v16h-16zm64 0h16v16h-16zm-32 0h16v40h-16z"/></svg>