<svg height="512" viewBox="0 0 512.001 512.001" width="512" xmlns="http://www.w3.org/2000/svg"><path d="M431.279 10c0-5.523-4.478-10-10-10H122.606C99.513 0 80.724 18.788 80.724 41.882v360.265c0 .039-.003.077-.003.116v36.312c0 22.494 18.301 40.794 40.795 40.794h13.979V502a10 10 0 0017.237 6.901l23.873-25.039 23.873 25.039A9.998 9.998 0 00217.715 502v-22.631h203.563c5.522 0 10-4.477 10-10V10zM122.606 20h288.673v340.388H122.597a41.619 41.619 0 00-21.872 6.183V41.882C100.724 29.816 110.541 20 122.606 20zm75.11 457.021l-13.873-14.55a10 10 0 00-14.474 0l-13.873 14.55v-38.539h42.221v38.539zm20-17.652v-20.887h4.348c5.522 0 10-4.477 10-10s-4.478-10-10-10h-89.916c-5.522 0-10 4.477-10 10s4.478 10 10 10h3.344v20.887h-13.975c-11.467 0-20.795-9.328-20.795-20.794V402.34c0-.02.003-.038.003-.058 0-12.066 9.816-21.882 21.882-21.882H411.28v19.864h-86.853c-5.522 0-10 4.477-10 10s4.478 10 10 10h86.853v39.104H217.716z"/><path d="M351.602 267.012H174.386c-5.522 0-10 4.477-10 10s4.478 10 10 10h177.217c5.522 0 10-4.477 10-10s-4.478-10-10.001-10zm0 43.013H174.386c-5.522 0-10 4.477-10 10s4.478 10 10 10h177.217c5.522 0 10-4.477 10-10s-4.478-10-10.001-10zm-63.288 96.415c-1.64-3.938-5.71-6.463-9.971-6.145-4.128.308-7.696 3.205-8.862 7.17-2.481 8.438 6.875 15.79 14.521 11.496 4.339-2.437 6.225-7.929 4.312-12.521zM146.639 154.816l67.229 40.342a9.994 9.994 0 0013.72-3.429c2.842-4.736 1.307-10.878-3.429-13.72l-1.197-.718 6.544-10.905 78.615 47.173c-2.717 4.608-1.333 10.575 3.209 13.487a9.947 9.947 0 005.388 1.583 9.99 9.99 0 008.428-4.604l.116-.181 7.796 4.678a29.707 29.707 0 0015.334 4.254c10.163 0 20.087-5.176 25.688-14.507 4.108-6.848 5.305-14.886 3.368-22.634s-6.774-14.278-13.622-18.387l-6.481-3.889c1.577-4.303.029-9.273-3.99-11.85-4.192-2.688-9.623-1.843-12.838 1.752l-80.242-48.149 6.055-10.091 1.197.718a9.996 9.996 0 0013.721-3.429c2.841-4.736 1.306-10.878-3.43-13.72l-67.23-40.342c-4.736-2.842-10.879-1.306-13.721 3.429-2.841 4.736-1.306 10.878 3.43 13.72l1.574.944-43.366 72.269-1.573-.944c-4.736-2.842-10.879-1.306-13.72 3.429-2.844 4.737-1.309 10.88 3.427 13.721zM250 132.272l79.595 47.761-10.69 16.672-79.091-47.458zm106.929 75.706c-2.81 4.681-8.903 6.202-13.581 3.395l-7.286-4.372 10.69-16.672 6.781 4.069c2.268 1.36 3.869 3.522 4.51 6.087s.245 5.226-1.114 7.493zM219.018 76.633l30.161 18.098L205.812 167l-.862-.517-29.299-17.581z"/></svg>