<svg height="511pt" viewBox="0 1 512 511" width="511pt" xmlns="http://www.w3.org/2000/svg"><path d="M452.348 60.152c-79.54-79.535-208.953-79.535-288.489 0-15.226 15.223-27.789 32.47-37.457 51.399L113.88 99.027c-17.125-17.125-44.984-17.125-62.11 0L22.185 128.61c-25.989 25.989-29.16 63.09-9.426 110.274 3.039 7.27 9.605 17.355 20.074 30.84.16.203.328.402.5.597l20.633 22.664c.105.118.215.23.324.34l50.633 50.633c3.906 3.906 10.238 3.906 14.148 0 3.903-3.906 3.903-10.238 0-14.144l-50.468-50.465-20.211-22.203c-11.332-14.622-15.602-22.196-17.184-25.98-16.523-39.52-14.852-68.442 5.121-88.411l10.75-10.75 94.473 94.473-14.672 14.668c-8.422 8.421-9.156 21.75-1.707 31.007 11.402 14.168 32.074 36.543 55.324 59.871 23.309 23.227 45.68 43.903 59.852 55.305 9.254 7.445 22.582 6.711 31-1.71l14.672-14.673 94.472 94.473-10.75 10.75c-19.969 19.973-48.89 21.648-88.41 5.121-3.977-1.664-13.902-7.121-35.789-25.004l-62.86-62.855c-3.906-3.907-10.238-3.907-14.144 0s-3.906 10.238 0 14.144l63.211 63.211c.238.235.484.457.738.668 18.657 15.266 32.11 24.516 41.125 28.29 20.344 8.507 38.809 12.757 55.32 12.757 21.786 0 40.169-7.402 54.954-22.187l29.586-29.583c17.12-17.125 17.12-44.988 0-62.109l-12.524-12.527c18.922-9.664 36.168-22.223 51.395-37.453 79.539-79.536 79.539-208.953.004-288.489zM99.734 113.168l60.653 60.656c9.324 9.324 9.324 24.492 0 33.817l-4.692 4.691-94.472-94.473 4.691-4.691c9.324-9.324 24.496-9.32 33.82 0zm299.594 333.418l-4.687 4.687-94.473-94.472 4.687-4.688c9.325-9.328 24.497-9.324 33.82 0l60.653 60.653c9.324 9.324 9.324 24.496 0 33.82zm-13.332-75.441l-33.176-33.176c-17.12-17.121-44.984-17.125-62.11 0l-33.503 33.504c-1.184 1.187-3.039 1.3-4.32.273-13.649-10.988-35.434-31.133-58.246-53.863-22.754-22.836-42.903-44.621-53.887-58.27-1.027-1.281-.914-3.136.273-4.32l33.504-33.504c17.125-17.125 17.125-44.988 0-62.11l-33.172-33.175c9.04-19.371 21.352-36.918 36.645-52.207 71.738-71.738 188.46-71.738 260.2 0s71.737 188.465 0 260.2c-15.298 15.296-32.837 27.605-52.208 36.648zm0 0"/><path d="M143.676 378.566c-4.188 0-7.992-2.699-9.41-6.632-1.391-3.868-.2-8.336 2.941-10.993 3.281-2.777 8.094-3.12 11.746-.863 3.504 2.168 5.324 6.41 4.524 10.445-.915 4.622-5.098 8.043-9.801 8.043zm215.269-152.211h-50.843c-5.524 0-10-4.476-10-10v-73.722c0-5.524 4.476-10 10-10 5.523 0 10.003 4.476 10.003 10v63.722h40.84c5.524 0 10 4.477 10 10 0 5.524-4.476 10-10 10zm0 0"/><path d="M411.57 317.867a9.961 9.961 0 01-7.07-2.93c-3.906-3.906-3.906-10.238 0-14.144 25.703-25.703 39.86-59.938 39.86-96.398 0-36.458-14.157-70.692-39.86-96.395-38.617-38.617-96.406-50.434-147.223-30.098-5.129 2.051-10.949-.445-13.004-5.57-2.05-5.129.446-10.95 5.575-13.004 58.257-23.308 124.511-9.754 168.793 34.527 29.484 29.485 45.718 68.739 45.718 110.543 0 41.801-16.234 81.059-45.718 110.54a9.961 9.961 0 01-7.07 2.93zm0 0"/></svg>