<svg xmlns="http://www.w3.org/2000/svg" viewBox="0 0 512 512"><path d="M87.847 280.104c0 27.829 10.137 56.011 27.811 77.321 18.586 22.409 42.849 34.751 68.318 34.751 25.466 0 49.699-12.335 68.237-34.732 17.616-21.284 27.719-49.455 27.719-77.291v-.143a8 8 0 00-16 0v.143c0 24.174-8.764 48.626-24.045 67.089-15.442 18.658-35.299 28.934-55.911 28.934-20.623 0-40.512-10.287-56.003-28.965-15.333-18.487-24.126-42.947-24.126-67.107v-9.595c0-19.791 13.293-46.696 18.333-56.187 32.113-3.683 63.08-2.321 92.099 4.084a8.004 8.004 0 009.536-6.088 8 8 0 00-6.088-9.536c-31.833-7.026-65.791-8.346-100.941-3.936a7.984 7.984 0 00-6.553 3.983c-.512.886-7.474 13.042-13.5 28.589-2.735-14.816-5.242-31.478-5.242-42.78 0-27.988 17.719-40.516 35.28-40.516.58 0 1.144-.065 1.688-.182a8.013 8.013 0 001.677.183 7.963 7.963 0 004.833-1.63c17.543-13.325 40.98-11.589 63.694-7.728a8 8 0 009.228-6.546 8 8 0 00-6.546-9.228c-24.198-4.113-51.751-6.161-73.856 9.167a8.102 8.102 0 00-.718-.036c-15.185 0-28.667 6.068-37.963 17.086-8.587 10.178-13.317 24.181-13.317 39.43 0 24.975 10.624 71.13 12.354 78.481v12.985z"/><path d="M321.753 409.886a8.412 8.412 0 00-.521-.127l-47.597-9.956-12.583-19.081a7.827 7.827 0 00-.279-.396 14.131 14.131 0 00-9.557-5.523 14.143 14.143 0 00-10.754 3.206l-56.594 48.716-56.593-48.716-.153-.129a14.128 14.128 0 00-10.601-3.077 14.135 14.135 0 00-9.557 5.523c-.097.129-.19.261-.279.396l-12.583 19.081-47.597 9.956a8.412 8.412 0 00-.521.127c-13.84 3.877-25.614 12.458-34.051 24.815C4.238 445.974 0 459.582 0 473.019v15.041c0 13.195 11.75 23.931 26.193 23.931h139.46l.03.001.033-.001h36.303l.033.001.03-.001h139.461c14.443 0 26.193-10.735 26.193-23.931v-15.041c0-13.437-4.238-27.045-11.934-38.317-8.435-12.357-20.209-20.938-34.049-24.816zm-72.643-18.209l9.931 15.06-39.749 54.654-23.671-23.67 53.489-46.044zm-70.489 88.379h10.496l3.187 15.935h-16.87l3.187-15.935zm13.248-20.383c0 2.634-1.605 4.382-2.667 4.382h-10.667c-1.062 0-2.667-1.748-2.667-4.382v-3.079l8-8 8 8v3.079zm-73.241-67.996l53.488 46.043-23.67 23.67-39.749-54.654 9.931-15.059zM16 488.06v-15.041c0-18.872 11.696-41.252 34.055-47.656l45.486-9.514 45.472 62.524a8 8 0 0012.126.952l9.328-9.329c.423.782.888 1.531 1.4 2.242l-4.75 23.752H26.193c-5.525 0-10.193-3.632-10.193-7.93zm335.738 0c0 4.299-4.668 7.931-10.193 7.931H208.62l-4.75-23.752c.512-.71.977-1.46 1.4-2.242l9.329 9.329a7.999 7.999 0 0012.126-.952l45.472-62.524 45.486 9.514c22.358 6.404 34.055 28.784 34.055 47.656v15.04zM368 .009c-79.402 0-144 64.598-144 144s64.598 144 144 144 144-64.598 144-144-64.598-144-144-144zm0 272c-70.58 0-128-57.421-128-128s57.42-128 128-128 128 57.421 128 128-57.42 128-128 128z"/><path d="M455.96 79.218c-.011-.114-.033-.225-.049-.337-.021-.146-.038-.292-.067-.437-.026-.132-.062-.26-.095-.389-.031-.124-.058-.248-.095-.37-.039-.127-.087-.25-.131-.375-.043-.121-.083-.244-.133-.363-.049-.118-.106-.23-.16-.345-.057-.122-.111-.245-.175-.364-.06-.112-.128-.218-.193-.327-.069-.115-.134-.231-.209-.343-.082-.122-.173-.237-.261-.355-.069-.091-.132-.185-.205-.274a8.036 8.036 0 00-1.118-1.118c-.089-.073-.183-.136-.274-.205-.117-.088-.233-.179-.355-.261-.112-.075-.228-.14-.342-.208-.109-.065-.216-.134-.328-.194-.119-.063-.242-.118-.363-.175-.115-.054-.228-.112-.346-.161-.12-.049-.242-.089-.363-.133-.125-.045-.248-.093-.375-.131-.122-.037-.247-.064-.371-.095-.129-.032-.257-.069-.389-.095-.144-.029-.29-.046-.435-.066-.113-.016-.224-.038-.338-.049a8.082 8.082 0 00-.793-.04H400a8 8 0 000 16h28.687L368 148.695l-18.343-18.344a8 8 0 00-11.313 0l-64 64a7.999 7.999 0 000 11.314c1.562 1.562 3.609 2.343 5.657 2.343s4.095-.781 5.657-2.343L344 147.322l18.343 18.344a7.968 7.968 0 005.657 2.342 7.968 7.968 0 005.659-2.345L440 99.322v28.687a8 8 0 0016 0V80.011c0-.264-.014-.529-.04-.793z"/></svg>