<svg xmlns="http://www.w3.org/2000/svg" viewBox="0 0 512.001 512.001"><path d="M501.998 437.999h-44v-80.843c0-5.522-4.477-10-10-10s-10 4.478-10 10v80.843H217.984c-5.523 0-10 4.478-10 10 0 .365.014 1.69.014 2 0 23.159-18.841 42-42 42s-42-18.841-42-42V321c0-5.522-4.477-10-10-10s-10 4.478-10 10v128.999c0 34.187 27.813 62 62 62h282c35.29 0 64-28.71 64-64 0-5.522-4.477-10-10-10zm-54 54H211.553c8.491-9.203 14.224-20.973 15.911-34h263.388c-4.539 19.461-22.03 34-42.854 34zM121.071 270.93a10.076 10.076 0 00-7.07-2.93c-2.63 0-5.21 1.069-7.07 2.93a10.076 10.076 0 00-2.93 7.07c0 2.63 1.07 5.21 2.93 7.069a10.072 10.072 0 007.07 2.931c2.63 0 5.21-1.07 7.07-2.931a10.072 10.072 0 002.93-7.069c0-2.63-1.07-5.21-2.93-7.07z"/><path d="M511.368 252.667l.008-.004-41.042-110.638h12.664c5.523 0 10-4.478 10-10s-4.477-10-10-10h-25V64.002c0-35.29-28.71-63.999-64-63.999H61.999c-34.187 0-62 27.813-62 62 0 5.522 4.477 10 10 10h93.999v163.999c0 5.522 4.477 10 10 10s10-4.478 10-10V62.003c0-16.191-6.245-30.946-16.445-42h286.445c24.262 0 44 19.738 44 44v58.023h-79.694c-3.609-10.781-13.796-18.575-25.776-18.575h-1.057c-11.98 0-22.167 7.794-25.776 18.575H181.003c-5.523 0-10 4.478-10 10s4.477 10 10 10h12.667l-41.042 110.638.008.004a9.953 9.953 0 00-.632 3.473v1.374c0 30.144 24.524 54.668 54.668 54.668h2.748c30.144 0 54.668-24.524 54.668-54.668v-1.374a9.95 9.95 0 00-.634-3.477h.009l-41.043-110.64h81.874v215.163h-9.773c-5.523 0-10 4.478-10 10s4.477 10 10 10h74.961c5.523 0 10-4.478 10-10s-4.477-10-10-10h-9.773V228.334c0-5.522-4.477-10-10-10s-10 4.478-10 10v128.854h-15.416V157.896c2.288.627 4.693.969 7.178.969h1.057c11.328 0 21.055-6.968 25.132-16.841h83.819c.027.023.051.049.078.071l-41.016 110.566a.043.043 0 01.007.006 9.948 9.948 0 00-.632 3.472v1.374c0 30.144 24.524 54.668 54.668 54.668h2.748c30.144 0 54.668-24.524 54.668-54.668v-1.374c0-1.222-.23-2.388-.632-3.472zM21.213 52.002c4.499-18.345 21.074-32 40.787-32s36.288 13.655 40.787 32H21.213zm188.205 240.18h-2.748c-16.14 0-29.738-11.085-33.582-26.042H243c-3.844 14.957-17.442 26.042-33.582 26.042zm30.293-46.041h-63.333l31.666-85.363 31.667 85.363zm99.997-114.455c0 3.959-3.221 7.18-7.18 7.18h-1.057c-3.959 0-7.18-3.221-7.18-7.18v-1.057c0-3.959 3.221-7.18 7.18-7.18h1.057c3.959 0 7.18 3.221 7.18 7.18v1.057zm116.251 29.091l31.666 85.363h-63.333l31.667-85.363zm1.373 131.405h-2.748c-16.14 0-29.738-11.085-33.582-26.042h69.911c-3.842 14.957-17.441 26.042-33.581 26.042z"/><path d="M356.779 181.931a10.076 10.076 0 00-7.07-2.93c-2.63 0-5.21 1.07-7.07 2.93a10.076 10.076 0 00-2.93 7.07c0 2.63 1.07 5.21 2.93 7.069a10.077 10.077 0 007.07 2.931c2.63 0 5.21-1.07 7.07-2.931a10.072 10.072 0 002.93-7.069c0-2.63-1.07-5.21-2.93-7.07z"/></svg>