<svg viewBox="0 0 512 512" xmlns="http://www.w3.org/2000/svg"><path d="M306 462c0 5.52 4.48 10 10 10s10-4.48 10-10-4.48-10-10-10-10 4.48-10 10zm-30-10h-80c-5.523 0-10 4.477-10 10s4.477 10 10 10h80c5.523 0 10-4.477 10-10s-4.477-10-10-10zm0 0"/><path d="M511.965 289.336a8.616 8.616 0 00-.082-.785 9.074 9.074 0 00-.051-.344 10.43 10.43 0 00-.262-1.105 10.27 10.27 0 00-.414-1.114c-.008-.015-.011-.035-.02-.05l-77.21-173.723L469.07 77.07c3.907-3.906 3.907-10.234 0-14.14s-10.234-3.907-14.14 0l-35.524 35.523L305.398 57.7A50.53 50.53 0 00306 50c0-27.57-22.43-50-50-50s-50 22.43-50 50c0 2.594.21 5.164.602 7.7L92.594 98.452 57.07 62.93c-3.906-3.907-10.234-3.907-14.14 0s-3.907 10.234 0 14.14l35.14 35.145L.863 285.938c-.008.015-.011.035-.02.05-.16.36-.296.73-.413 1.114a10.71 10.71 0 00-.262 1.102c-.02.116-.035.23-.05.343-.04.262-.067.52-.083.785-.012.137-.02.273-.023.41 0 .086-.012.172-.012.258 0 49.625 40.375 90 90 90 24.031 0 46.629-9.36 63.645-26.36C170.64 336.634 180 314.028 180 290c0-.086-.012-.172-.012-.258a7.079 7.079 0 00-.023-.406 8.616 8.616 0 00-.082-.785 9.074 9.074 0 00-.051-.344 10.43 10.43 0 00-.262-1.105 10.27 10.27 0 00-.414-1.114c-.008-.015-.011-.035-.02-.05l-75.62-170.149 110.062-39.344A50.288 50.288 0 00226 89.988v268.77c-7.207 3.433-13.86 8.101-19.504 13.746-10.945 10.957-17.805 24.898-19.844 39.98C141.402 417.176 106 455.531 106 502c0 5.523 4.477 10 10 10h280c5.523 0 10-4.477 10-10 0-46.469-35.402-84.824-80.652-89.516-2.04-15.082-8.899-29.027-19.848-39.984-5.64-5.645-12.29-10.309-19.5-13.742V89.992a50.31 50.31 0 0012.422-13.547l110.062 39.344-75.62 170.149c-.009.015-.012.035-.02.05-.16.364-.297.735-.414 1.114a10.43 10.43 0 00-.262 1.105c-.02.113-.035.227-.05.344-.04.258-.067.52-.083.785a6.88 6.88 0 00-.023.406c0 .086-.012.172-.012.258 0 49.625 40.375 90 90 90 24.031 0 46.629-9.36 63.645-26.36C502.64 336.634 512 314.028 512 290c0-.086-.012-.172-.012-.258a7.079 7.079 0 00-.023-.406zM256 352c-3.367 0-6.703.25-10 .723V98.984c3.281.668 6.629 1.016 10 1.016s6.719-.348 10-1.016v253.739a70.41 70.41 0 00-10-.723zm0-332c16.543 0 30 13.457 30 30 0 3.629-.64 7.172-1.902 10.54-2.43 6.48-7.086 11.968-13.094 15.448C266.454 78.613 261.27 80 256 80s-10.453-1.387-14.988-4.004c-6.024-3.488-10.68-8.976-13.11-15.457v-.004A29.883 29.883 0 01226 50c0-16.543 13.457-30 30-30zM139.5 339.496C126.27 352.72 108.691 360 90 360c-35.203 0-64.406-26.125-69.273-60h138.558c-2.117 14.898-8.953 28.66-19.785 39.496zM100 280v-30c0-5.523-4.477-10-10-10s-10 4.477-10 10v30H25.387L90 134.621 154.613 280zm285.29 212H126.71c4.868-33.879 34.087-60 69.29-60h120c35.203 0 64.422 26.121 69.29 60zm-80.286-80H207c1.926-9.54 6.605-18.313 13.64-25.36 5.255-5.25 11.72-9.331 18.688-11.8A49.907 49.907 0 01256 372a49.89 49.89 0 0116.664 2.836 50.366 50.366 0 0118.691 11.805c7.04 7.043 11.72 15.82 13.649 25.359zM422 134.621L486.613 280H432v-30c0-5.523-4.477-10-10-10s-10 4.477-10 10v30h-54.613zm49.5 204.875C458.27 352.72 440.691 360 422 360c-35.203 0-64.406-26.125-69.273-60h138.558c-2.117 14.898-8.953 28.66-19.785 39.496zm0 0"/></svg>