<svg width="783" height="925" fill="none" xmlns="http://www.w3.org/2000/svg"><path d="M783 86.376C702.4-39.994 23.06-17.019.034 86.376.034 212.748-11.48 787.157 391.515 925c299.369-103.378 426.058-562.89 379.968-585.882-92.116-45.953-345.423-57.457-368.452-57.457-18.422 0-7.676 114.898 0 172.339 38.381-3.83 98.275-.253 132.969 15 18.313 8.051-86.914 180.283-155.997 214.748-126.658-103.394-179.624-363.027-161.201-436.551 18.422-73.525 383.806-22.961 564.195 22.992L783 86.376z" fill="url(#paint0_linear)"/><defs><linearGradient id="paint0_linear" x1="782.997" y1="419.535" x2="-34.509" y2="419.535" gradientUnits="userSpaceOnUse"><stop stop-color="#780F0F"/><stop offset="0" stop-color="#A80000"/><stop offset="1" stop-color="#E42626"/></linearGradient></defs></svg>