<svg xmlns="http://www.w3.org/2000/svg" width="89" height="62" viewBox="0 0 23.548 16.404"><g stroke-width=".433" color="#000" font-weight="400" font-family="sans-serif"><path style="line-height:normal;font-variant-ligatures:normal;font-variant-position:normal;font-variant-caps:normal;font-variant-numeric:normal;font-variant-alternates:normal;font-feature-settings:normal;text-indent:0;text-align:start;text-decoration-line:none;text-decoration-style:solid;text-decoration-color:#000;text-transform:none;text-orientation:mixed;white-space:normal;shape-padding:0;isolation:auto;mix-blend-mode:normal;solid-color:#000;solid-opacity:1" d="M33.478 1.625c-1.117-.035-2.245.482-2.188 1.695l.076 1.624c.034.708.288 1.22.66 1.542.372.324.852.456 1.323.448a2.468 2.468 0 001.305-.4c.369-.246.645-.599.691-1.022l.247-2.278c.107-.99-.998-1.575-2.114-1.61zm-.013.324c.949.045 1.889.523 1.81 1.251l-.245 2.277c-.033.306-.24.585-.552.793a2.17 2.17 0 01-1.135.345c-.409.008-.808-.106-1.11-.368-.301-.262-.518-.677-.548-1.319l-.078-1.623c-.048-1.012.909-1.401 1.858-1.356zm-1.414 5.458a.437.437 0 00-.32.008c-.564.233-1.622.293-2.196 1.175a.91.91 0 00-.132.256c-.026.091-.033.184-.048.36-.03.349-.087 1.04-.33 2.626l.315.05c.243-1.594.303-2.301.332-2.65.015-.176.024-.257.036-.3a.628.628 0 01.093-.168c.48-.737 1.391-.784 2.051-1.056.042-.018.058-.015.083-.005.026.01.064.037.106.09.085.107.178.306.267.538.177.463.338 1.054.63 1.425.01.013.025.03.055.045a.345.345 0 00.056.018l.063-.005s.037-.014.05-.023a.178.178 0 00.059-.066c.022-.044.022-.066.027-.097.01-.062.017-.14.023-.238.012-.195.02-.46.026-.728.006-.268.01-.54.017-.74.003-.075.007-.127.01-.177h.198v-.318h-.335l.054.01-.093-.006-.067.036s-.024.023-.03.033c-.007.01-.01.018-.013.024-.013.026-.014.038-.016.052a.729.729 0 00-.012.084 7.013 7.013 0 00-.013.251c-.007.205-.012.477-.018.744l-.013.394c-.121-.279-.249-.532-.363-.831-.092-.241-.185-.46-.314-.622a.577.577 0 00-.238-.19z" overflow="visible"/><path style="line-height:normal;font-variant-ligatures:normal;font-variant-position:normal;font-variant-caps:normal;font-variant-numeric:normal;font-variant-alternates:normal;font-feature-settings:normal;text-indent:0;text-align:start;text-decoration-line:none;text-decoration-style:solid;text-decoration-color:#000;text-transform:none;text-orientation:mixed;white-space:normal;shape-padding:0;isolation:auto;mix-blend-mode:normal;solid-color:#000;solid-opacity:1" d="M35.293 7.41a.458.458 0 00-.32.014.617.617 0 00-.234.193c-.129.163-.222.38-.313.618-.112.294-.237.543-.357.817-.004-.133-.009-.25-.012-.397-.007-.267-.01-.54-.018-.744a5.089 5.089 0 00-.014-.25c-.003-.033-.005-.058-.01-.085-.003-.014-.004-.026-.016-.052a.198.198 0 00-.043-.057l-.067-.036-.093.006.053-.01h-.334v.318h.198c.003.05.006.102.008.178.007.2.013.471.019.74.006.267.012.532.024.727.006.098.013.176.023.238.005.03.006.053.029.098a.163.163 0 00.059.065.356.356 0 00.048.023l.065.005s.04-.01.054-.017a.162.162 0 00.056-.046c.29-.37.449-.95.624-1.406.087-.229.18-.427.266-.536a.323.323 0 01.113-.1c.03-.012.051-.016.095-.002.375.12.856.237 1.257.408.401.171.699.388.771.674l.307-.077c-.112-.44-.517-.703-.953-.889-.437-.186-.93-.303-1.285-.417zm5.49-5.72c-1.352-.043-2.717.577-2.647 2.04-.002.016-.026.351-.03.787-.005.446.007.976.094 1.349.384 1.645 1.48 2.31 2.533 2.272 1.052-.04 2.062-.743 2.326-1.756.242-.93.289-2.742.29-2.76.123-1.182-1.215-1.888-2.566-1.931zm-.013.326c1.184.054 2.36.653 2.263 1.574v.006l-.001.005s-.061 1.86-.28 2.7c-.222.854-1.116 1.486-2.032 1.52-.917.034-1.852-.49-2.21-2.027-.073-.311-.091-.836-.086-1.273.004-.436.028-.788.028-.788l.002-.01-.002-.009c-.06-1.26 1.134-1.752 2.318-1.698zm-.105 6.824c-1.623.007-3.237.266-4.374.784-.33.15-.552.512-.735.95-.184.438-.323.966-.429 1.483a17.451 17.451 0 00-.275 1.898c-.01.123-.017.192-.017.238h.318c0-.001.004-.09.014-.21s.028-.284.05-.475c.046-.383.117-.88.221-1.386.104-.506.241-1.02.412-1.426.17-.407.38-.695.573-.783 1.069-.487 2.654-.748 4.244-.755 1.59-.007 3.189.238 4.284.73.256.114.49.42.678.837.187.416.329.934.431 1.44a14.492 14.492 0 01.244 1.833l.01.19h.318a14.588 14.588 0 00-.052-.68 14.83 14.83 0 00-.209-1.406c-.105-.52-.25-1.056-.453-1.508-.203-.451-.465-.828-.838-.996-1.163-.522-2.792-.766-4.415-.758z" overflow="visible"/><path style="line-height:normal;font-variant-ligatures:normal;font-variant-position:normal;font-variant-caps:normal;font-variant-numeric:normal;font-variant-alternates:normal;font-feature-settings:normal;text-indent:0;text-align:start;text-decoration-line:none;text-decoration-style:solid;text-decoration-color:#000;text-transform:none;text-orientation:mixed;white-space:normal;shape-padding:0;isolation:auto;mix-blend-mode:normal;solid-color:#000;solid-opacity:1" d="M44.612.283a.159.159 0 00-.141.158v6.093a.159.159 0 00.159.159h1.956a.16.16 0 100-.318h-1.799V.6h7.337v5.723h-4.302a.159.159 0 00-.122.057l-1.854 2.196a.159.159 0 10.243.205l1.806-2.14h4.388a.159.159 0 00.16-.159V.441a.159.159 0 00-.16-.158H44.63a.159.159 0 00-.018 0z" overflow="visible" opacity=".92"/><path style="line-height:normal;font-variant-ligatures:normal;font-variant-position:normal;font-variant-caps:normal;font-variant-numeric:normal;font-variant-alternates:normal;font-feature-settings:normal;text-indent:0;text-align:start;text-decoration-line:none;text-decoration-style:solid;text-decoration-color:#000;text-transform:none;text-orientation:mixed;white-space:normal;shape-padding:0;isolation:auto;mix-blend-mode:normal;solid-color:#000;solid-opacity:1" d="M46.798 2.995c-.108 0-.2.092-.2.2v.329c0 .108.092.2.2.2h.553c.108 0 .2-.092.2-.2v-.33a.203.203 0 00-.2-.199zm.118.317h.318v.094h-.318zm1.275-.317c-.107 0-.2.092-.2.2v.329c0 .108.093.2.2.2h.554a.203.203 0 00.199-.2v-.33a.202.202 0 00-.2-.199zm.118.317h.317v.094h-.317zm1.283-.317c-.108 0-.2.092-.2.2v.329c0 .108.092.2.2.2h.554c.108 0 .2-.092.2-.2v-.33a.202.202 0 00-.2-.199zm.119.317h.316v.094h-.316z" overflow="visible" opacity=".92"/></g><g color="#000" font-weight="400" font-family="sans-serif"><path d="M9.6 3.43c-.323.076-.614.31-1.08.301-.288-.006-.658-.158-1.04-.273-.124-.038-.231.02-.3.08a.5.5 0 00-.15.213c-.085.242-.038.538-.019.816.008.105.009.193.008.28-.007-.037-.016-.061-.021-.118a.535.535 0 00-.122-.332c-.092-.101-.198-.125-.289-.15-.09-.025-.168-.037-.168-.037l-.046.314s.059.01.128.03c.07.018.146.061.141.056.017.019.03.065.04.15.008.085.008.201.075.32.019.033.055.11.104.178.024.035.049.072.11.104a.2.2 0 00.124.021.21.21 0 00.12-.064c.095-.104.114-.23.122-.361.01-.131 0-.272-.01-.414-.02-.285-.033-.583.005-.688a.241.241 0 01.054-.078c.023-.02.024-.01.002-.016.357.108.74.28 1.125.287.575.012.972-.266 1.158-.31.013-.003.055.004.1.035a.275.275 0 01.092.113c.045.14.028.363.014.588-.015.225-.038.472.136.654a.26.26 0 00.215.075.271.271 0 00.149-.086c.066-.066.108-.139.128-.166.071-.096.081-.196.09-.268a.464.464 0 01.03-.137.898.898 0 01.115-.119c.05-.043.094-.074.094-.074l-.188-.256s-.053.038-.113.09a.807.807 0 00-.18.195c-.06.099-.065.192-.074.26a.331.331 0 01-.03.121l-.02.03c-.022-.075-.046-.145-.036-.3.014-.214.05-.466-.027-.704a.541.541 0 00-.211-.276.44.44 0 00-.356-.084zM7.312 6.65a.159.159 0 00-.148.097s-.053.11-.127.242c-.075.131-.18.283-.24.334-.358.301-.91.398-1.47.517-.551.118-1.117.274-1.452.758-.165.154-.243.392-.319.703a8.99 8.99 0 00-.18 1.098c-.042.39-.067.784-.078 1.113-.01.33-.01.587.012.74a.159.159 0 00.078.118c.905.522 1.944 1.218 2.645 1.623a.45.45 0 00.457-.006.901.901 0 00.283-.338c.148-.268.255-.603.342-.793.028-.061.083-.158.119-.268a.46.46 0 00.027-.185.305.305 0 00-.11-.205 5.527 5.527 0 00-.886-.59c-.246-.134-.49-.259-.91-.55.027.018.021.026.016.003a.555.555 0 01-.012-.12c0-.106.015-.25.033-.394.019-.143.04-.285.05-.398a.833.833 0 00.005-.154.224.224 0 00-.022-.09.202.202 0 00-.154-.104.159.159 0 00-.14.246.75.75 0 01-.005.075c-.008.096-.03.237-.048.384-.02.148-.036.3-.035.436 0 .068.002.131.017.193.015.062.04.132.113.184.433.3.7.437.942.568.238.13.459.26.828.551a.147.147 0 01-.01.05c-.02.065-.07.154-.107.237-.103.225-.207.546-.33.77a.684.684 0 01-.178.224c-.047.03-.057.038-.125-.002-.662-.382-1.67-1.052-2.568-1.576a5.19 5.19 0 01-.01-.617c.01-.321.037-.709.078-1.09.041-.381.1-.758.172-1.057.072-.298.181-.521.228-.562a.159.159 0 00.028-.031c.254-.38.725-.516 1.273-.633.548-.117 1.158-.206 1.607-.586.131-.11.231-.276.313-.42.082-.144.137-.266.137-.266a.159.159 0 00-.139-.228zm2.471.089a.159.159 0 00-.117.248s.087.133.205.28c.117.146.244.31.43.382.654.255 1.84.701 1.84.701a.159.159 0 10.11-.297s-1.186-.446-1.835-.699c-.038-.015-.191-.152-.297-.285-.107-.133-.188-.256-.188-.256a.159.159 0 00-.148-.074zm-.762 1.008l-.937.004a.242.242 0 00-.153.058.261.261 0 00-.07.11.546.546 0 00-.027.205c.002.133.022.254.05.337.036.105.103.171.135.207.032.037.021.024.022.018l-.213 3.266a.159.159 0 10.316.021l.213-3.267a.348.348 0 00-.1-.248c-.04-.045-.06-.067-.072-.1a1.195 1.195 0 01-.035-.238c0-.025.004-.034.006-.051l.812-.004c.004.013.006.017.008.039a.973.973 0 01-.02.258c.007-.027-.002-.005-.046.033a.468.468 0 00-.078.082.267.267 0 00-.051.166l.166 3.32a.159.159 0 10.316-.015L9.1 8.655c.005-.005.008-.01.02-.02.037-.032.118-.08.146-.203.023-.098.038-.228.028-.355a.47.47 0 00-.051-.192c-.035-.065-.124-.139-.221-.138z" style="line-height:normal;font-variant-ligatures:normal;font-variant-position:normal;font-variant-caps:normal;font-variant-numeric:normal;font-variant-alternates:normal;font-feature-settings:normal;text-indent:0;text-align:start;text-decoration-line:none;text-decoration-style:solid;text-decoration-color:#000;text-transform:none;text-orientation:mixed;white-space:normal;shape-padding:0;isolation:auto;mix-blend-mode:normal;solid-color:#000;solid-opacity:1" overflow="visible"/><path d="M10.814 5.768a.159.159 0 00-.13.072l-.391.584H9.029a.159.159 0 100 .317h1.347a.159.159 0 00.133-.07l.438-.653a.159.159 0 00-.133-.25z" style="line-height:normal;font-variant-ligatures:normal;font-variant-position:normal;font-variant-caps:normal;font-variant-numeric:normal;font-variant-alternates:normal;font-feature-settings:normal;text-indent:0;text-align:start;text-decoration-line:none;text-decoration-style:solid;text-decoration-color:#000;text-transform:none;text-orientation:mixed;white-space:normal;shape-padding:0;isolation:auto;mix-blend-mode:normal;solid-color:#000;solid-opacity:1" overflow="visible"/><path d="M8.195 6.104c-.041 0-.075-.001-.121.008a.244.244 0 00-.149.101c-.066.112-.039.17-.039.28 0 .148-.017.233.06.34.04.053.11.082.155.09.045.006.077.003.11.003h.736c.05 0 .123-.02.168-.07a.245.245 0 00.06-.143c.011-.082.004-.157.004-.263 0-.018.01-.079-.013-.158a.253.253 0 00-.082-.127c-.003-.002-.006 0-.008-.002l-.002-.053h-.157l-.72-.006zm.006.318l.562.004h.098v.184h-.656c.005-.002 0-.01 0-.117 0-.069-.004-.056-.004-.07z" style="line-height:normal;font-variant-ligatures:normal;font-variant-position:normal;font-variant-caps:normal;font-variant-numeric:normal;font-variant-alternates:normal;font-feature-settings:normal;text-indent:0;text-align:start;text-decoration-line:none;text-decoration-style:solid;text-decoration-color:#000;text-transform:none;text-orientation:mixed;white-space:normal;shape-padding:0;isolation:auto;mix-blend-mode:normal;solid-color:#000;solid-opacity:1" overflow="visible"/><path d="M8.337 1.319a2.807 2.807 0 00-1.353.47c-.382.267-.667.644-.744 1.106a.159.159 0 00-.004.025v1.448l-.002.013-.008.084c-.006.07-.013.164-.018.266a3.58 3.58 0 00-.002.313c.005.1.011.19.045.277.306.786.793 1.564 1.436 1.976.322.207.687.318 1.076.276.39-.042.794-.237 1.197-.61.08-.072.085-.164.088-.212.004-.05.011-.07.004-.057.011-.021.08-.067.154-.176.286-.417.67-.865.754-1.435.028-.185.018-.365.028-.53a.554.554 0 00-.053-.252c-.026-.064-.049-.115-.055-.148-.073-.415.07-.928-.107-1.436-.375-1.075-1.448-1.484-2.436-1.398zm.028.316c.884-.076 1.788.266 2.11 1.188.133.383.002.873.093 1.387.016.09.05.158.072.212a.29.29 0 01.03.112c-.012.189-.003.364-.024.504-.067.451-.403.865-.701 1.3-.02.03-.107.08-.174.207-.043.083-.037.148-.039.182-.002.034-.007.02.014.002a.159.159 0 000 .002c-.367.34-.707.494-1.016.527-.31.034-.599-.052-.873-.228-.549-.352-1.02-1.08-1.309-1.824a.817.817 0 01-.023-.176 3.292 3.292 0 01.002-.285c.004-.096.01-.186.016-.252l.007-.08.002-.022.002-.006a.159.159 0 000-.017V2.944c.061-.363.284-.666.612-.895a2.507 2.507 0 011.199-.414zm-.864 10.848c-.129.002-.245.005-.33.008a4.715 4.715 0 01-.097.002h-.018s.003-.001.016.002l.012.004.023.01.039.027.025.031.022.053-.313.058.02.053.027.033.04.03a4.879 4.879 0 00.038.011c.016.004.023.004.03.004l.039.002c.027 0 .062 0 .105-.002.086-.002.201-.006.326-.008.25-.003.55.007.678.041.151.04.51.296.69.551a.24.24 0 01.025.172 2.599 2.599 0 01-.219.441c-.087.137-.191.23-.234.243a.94.94 0 01-.338-.014c-.148-.026-.313-.067-.469-.092-.173-.028-.452-.146-.674-.258-.22-.111-.388-.214-.388-.214l-.166.271s.179.109.412.227c.233.118.516.247.765.287.135.021.3.062.465.092.165.029.328.053.487.003.185-.057.303-.21.408-.373a2.85 2.85 0 00.246-.5.497.497 0 00-.06-.468c-.227-.323-.57-.596-.868-.674-.21-.056-.505-.056-.764-.053zm5.76-10.74a.159.159 0 00-.158.16V4.21l-1.271.65a.159.159 0 00.078.3l1.174-.036v.66a.159.159 0 00.158.158h5.54a.159.159 0 00.16-.158V1.903a.159.159 0 00-.16-.16zm.16.318h5.204v3.565H13.4v-.668a.159.159 0 00-.164-.159l-.629.02.727-.371a.159.159 0 00.087-.14z" style="line-height:normal;font-variant-ligatures:normal;font-variant-position:normal;font-variant-caps:normal;font-variant-numeric:normal;font-variant-alternates:normal;font-feature-settings:normal;text-indent:0;text-align:start;text-decoration-line:none;text-decoration-style:solid;text-decoration-color:#000;text-transform:none;text-orientation:mixed;white-space:normal;shape-padding:0;isolation:auto;mix-blend-mode:normal;solid-color:#000;solid-opacity:1" overflow="visible"/><path d="M14.126 2.913a.16.16 0 100 .318h3.79a.16.16 0 100-.318zm-.016.779a.159.159 0 00.017.316h3.789a.159.159 0 100-.316h-3.79a.159.159 0 00-.015 0zm0 .778a.16.16 0 00.017.318h1.787a.16.16 0 100-.319h-1.787a.159.159 0 00-.016 0zm-.773 3.109a.159.159 0 00-.136.117l-1.069 3.988a.159.159 0 10.307.082l1.037-3.87h6.348a.159.159 0 100-.317h-6.47a.159.159 0 00-.017 0z" style="line-height:normal;font-variant-ligatures:normal;font-variant-position:normal;font-variant-caps:normal;font-variant-numeric:normal;font-variant-alternates:normal;font-feature-settings:normal;text-indent:0;text-align:start;text-decoration-line:none;text-decoration-style:solid;text-decoration-color:#000;text-transform:none;text-orientation:mixed;white-space:normal;shape-padding:0;isolation:auto;mix-blend-mode:normal;solid-color:#000;solid-opacity:1" overflow="visible"/><path d="M20.697 6.967l-7.73.026a.159.159 0 00-.155.117l-1.379 5.148a.159.159 0 00.154.2h3.522l.289 1.078h-1.037a.159.159 0 00-.111.271l.572.572a.159.159 0 00.113.047h3.918a.159.159 0 00.111-.271l-.716-.715a.159.159 0 00-.112-.047h-1.01l-.269-1.002h2.473a.159.159 0 00.152-.117l1.37-5.107a.159.159 0 00-.155-.2zm-.205.317l-1.285 4.79h-2.555a.159.159 0 00-.154.2l.353 1.318a.159.159 0 00.154.118h1.065l.4.4H15l-.256-.256h.86a.159.159 0 00.153-.201l-.375-1.395a.159.159 0 00-.152-.117h-3.437l1.294-4.83z" style="line-height:normal;font-variant-ligatures:normal;font-variant-position:normal;font-variant-caps:normal;font-variant-numeric:normal;font-variant-alternates:normal;font-feature-settings:normal;text-indent:0;text-align:start;text-decoration-line:none;text-decoration-style:solid;text-decoration-color:#000;text-transform:none;text-orientation:mixed;white-space:normal;shape-padding:0;isolation:auto;mix-blend-mode:normal;solid-color:#000;solid-opacity:1" overflow="visible"/><path d="M9.298 11.874a.159.159 0 00-.154.162l.004.318a.159.159 0 00.05.113l1.01.955a.159.159 0 00.11.045h4.738a.16.16 0 100-.318H10.38l-.916-.865-.002-.25a.159.159 0 00-.164-.16z" style="line-height:normal;font-variant-ligatures:normal;font-variant-position:normal;font-variant-caps:normal;font-variant-numeric:normal;font-variant-alternates:normal;font-feature-settings:normal;text-indent:0;text-align:start;text-decoration-line:none;text-decoration-style:solid;text-decoration-color:#000;text-transform:none;text-orientation:mixed;white-space:normal;shape-padding:0;isolation:auto;mix-blend-mode:normal;solid-color:#000;solid-opacity:1" overflow="visible"/><path d="M14.158 13.15a.223.223 0 00-.219.222v.037c0 .119.1.22.219.22h.931c.12 0 .221-.101.221-.22v-.037a.225.225 0 00-.22-.221z" style="line-height:normal;font-variant-ligatures:normal;font-variant-position:normal;font-variant-caps:normal;font-variant-numeric:normal;font-variant-alternates:normal;font-feature-settings:normal;text-indent:0;text-align:start;text-decoration-line:none;text-decoration-style:solid;text-decoration-color:#000;text-transform:none;text-orientation:mixed;white-space:normal;shape-padding:0;isolation:auto;mix-blend-mode:normal;solid-color:#000;solid-opacity:1" overflow="visible"/><path d="M1.199 11.83l4.285 3.266h16.865l-4.303-2.515v-.282a.159.159 0 10-.316 0v.463l3.445 2.016H5.591l-3.45-2.629H3.4a.16.16 0 100-.318z" style="line-height:normal;font-variant-ligatures:normal;font-variant-position:normal;font-variant-caps:normal;font-variant-numeric:normal;font-variant-alternates:normal;font-feature-settings:normal;text-indent:0;text-align:start;text-decoration-line:none;text-decoration-style:solid;text-decoration-color:#000;text-transform:none;text-orientation:mixed;white-space:normal;shape-padding:0;isolation:auto;mix-blend-mode:normal;solid-color:#000;solid-opacity:1" overflow="visible"/><path d="M6.554 11.803v.319h5.114v-.319z" style="line-height:normal;font-variant-ligatures:normal;font-variant-position:normal;font-variant-caps:normal;font-variant-numeric:normal;font-variant-alternates:normal;font-feature-settings:normal;text-indent:0;text-align:start;text-decoration-line:none;text-decoration-style:solid;text-decoration-color:#000;text-transform:none;text-orientation:mixed;white-space:normal;shape-padding:0;isolation:auto;mix-blend-mode:normal;solid-color:#000;solid-opacity:1" overflow="visible"/></g><g stroke-width="3.752" color="#000" font-weight="400" font-family="sans-serif"><path style="line-height:normal;font-variant-ligatures:normal;font-variant-position:normal;font-variant-caps:normal;font-variant-numeric:normal;font-variant-alternates:normal;font-feature-settings:normal;text-indent:0;text-align:start;text-decoration-line:none;text-decoration-style:solid;text-decoration-color:#000;text-transform:none;text-orientation:mixed;white-space:normal;shape-padding:0;isolation:auto;mix-blend-mode:normal;solid-color:#000;solid-opacity:1" d="M-25.51 3.793a.934.934 0 00-.356 0c-.115.025-.24.086-.292.217-.166.414-.272 1.144-.272 1.876 0 .731.088 1.453.447 1.842.083.09.19.1.285.097a.992.992 0 00.282-.057 1.36 1.36 0 00.264-.123c.08-.05.15-.1.2-.182.086-.14.07-.285.05-.444a1.836 1.836 0 00-.127-.47l-.028-.063-.066-.023s-.096-.034-.195-.088c-.099-.053-.176-.143-.175-.137a2.55 2.55 0 01-.045-.844c.001-.005-.001-.004.013-.017a.484.484 0 01.087-.056c.083-.044.212-.09.298-.228.18-.289.236-.614.19-.897-.023-.137-.12-.224-.222-.284a1 1 0 00-.338-.119zm-.289.31a.667.667 0 01.235.003.725.725 0 01.23.079c.057.033.07.064.07.062.033.204-.007.456-.146.678a.69.69 0 01-.178.116.697.697 0 00-.152.103.356.356 0 00-.112.208 2.73 2.73 0 00.051.963c.049.194.207.272.332.34.084.045.118.055.162.072.039.102.075.223.09.333.017.128-.008.242-.005.237a.452.452 0 01-.096.077 1.047 1.047 0 01-.2.093.731.731 0 01-.192.04c-.048.003-.057-.014-.04.005-.228-.246-.362-.927-.362-1.626 0-.7.116-1.427.249-1.757-.002.004.006-.013.064-.025z" overflow="visible"/><path style="line-height:normal;font-variant-ligatures:normal;font-variant-position:normal;font-variant-caps:normal;font-variant-numeric:normal;font-variant-alternates:normal;font-feature-settings:normal;text-indent:0;text-align:start;text-decoration-line:none;text-decoration-style:solid;text-decoration-color:#000;text-transform:none;text-orientation:mixed;white-space:normal;shape-padding:0;isolation:auto;mix-blend-mode:normal;solid-color:#000;solid-opacity:1" d="M-27.191 5.278a.738.738 0 00-.491.218 1.23 1.23 0 00-.294.424c-.403.967-.589 2.625-.636 3.684-.006.13.056.239.135.337.08.098.186.191.312.287.25.19.581.39.929.594.676.397 1.413.83 1.681 1.144.006.097.074 1.28.014 1.949a.159.159 0 10.316.028c.067-.754-.016-2.055-.016-2.055a.159.159 0 00-.033-.088c-.34-.435-1.11-.846-1.801-1.252-.346-.203-.67-.4-.898-.573a1.583 1.583 0 01-.257-.234c-.054-.067-.065-.111-.065-.123.046-1.035.246-2.699.612-3.576a.947.947 0 01.216-.313.436.436 0 01.278-.133c.05 0 .122.028.184.08.062.054.11.128.125.186.074.277-.02.922-.124 1.512-.051.295-.102.58-.123.821-.022.241-.043.437.083.601.155.201.418.27.701.333.283.062.595.098.838.139.712.118 1.486.07 2.218.032.731-.039 1.421-.067 1.943.065.392.099.918.215 1.352.357.217.071.41.15.547.229.136.079.2.159.209.194.096.39.163 1.344.199 2.178.035.833.044 1.56.044 1.56a.159.159 0 10.317-.004s-.009-.73-.044-1.57c-.036-.839-.093-1.772-.208-2.24-.044-.18-.188-.294-.357-.393a3.32 3.32 0 00-.608-.255c-.458-.15-.99-.267-1.373-.364-.594-.15-1.305-.113-2.038-.074-.733.039-1.488.081-2.149-.028-.255-.043-.561-.08-.822-.136-.26-.057-.468-.152-.517-.216a1.256 1.256 0 01-.02-.38c.02-.219.07-.5.121-.794.103-.59.232-1.22.118-1.649a.693.693 0 00-.226-.345.602.602 0 00-.392-.157z" overflow="visible"/><path style="line-height:normal;font-variant-ligatures:normal;font-variant-position:normal;font-variant-caps:normal;font-variant-numeric:normal;font-variant-alternates:normal;font-feature-settings:normal;text-indent:0;text-align:start;text-decoration-line:none;text-decoration-style:solid;text-decoration-color:#000;text-transform:none;text-orientation:mixed;white-space:normal;shape-padding:0;isolation:auto;mix-blend-mode:normal;solid-color:#000;solid-opacity:1" d="M-20.195 11.715a.159.159 0 00-.157.161v2.013a.159.159 0 10.318 0v-2.013a.159.159 0 00-.161-.161zm-2.556-8.223c-1.026-.03-2.064.446-2.01 1.562l.07 1.48c.031.65.263 1.121.606 1.419.342.297.783.418 1.216.41.432-.008.86-.14 1.199-.366.339-.226.594-.552.636-.944l.225-2.076c.099-.915-.916-1.453-1.942-1.485zm-.013.323c.858.042 1.71.475 1.639 1.127l-.225 2.077c-.03.274-.213.525-.496.713a1.97 1.97 0 01-1.029.314c-.37.006-.73-.096-1.002-.333-.272-.237-.469-.611-.497-1.194l-.07-1.48c-.044-.915.821-1.265 1.68-1.224zm3.25-3.638a.159.159 0 00-.159.159V4.94a.159.159 0 00.16.16h1.582a.159.159 0 100-.318h-1.424V.495h5.743v4.234l-3.447.054a.159.159 0 00-.11.047c-.575.574-.9 1.08-1.45 1.63a.159.159 0 10.225.225c.558-.559.886-1.053 1.41-1.586l3.533-.055a.159.159 0 00.157-.159V.335a.159.159 0 00-.159-.158z" overflow="visible"/><path style="line-height:normal;font-variant-ligatures:normal;font-variant-position:normal;font-variant-caps:normal;font-variant-numeric:normal;font-variant-alternates:normal;font-feature-settings:normal;text-indent:0;text-align:start;text-decoration-line:none;text-decoration-style:solid;text-decoration-color:#000;text-transform:none;text-orientation:mixed;white-space:normal;shape-padding:0;isolation:auto;mix-blend-mode:normal;solid-color:#000;solid-opacity:1" d="M-18.485 1.269a.159.159 0 100 .317h4.003a.159.159 0 100-.317zm0 .769a.159.159 0 100 .317h4.003a.159.159 0 100-.317zm0 .769a.159.159 0 100 .317h4.003a.159.159 0 100-.317zm0 .769a.159.159 0 100 .317h1.9a.159.159 0 100-.317z" overflow="visible"/></g></svg>