<svg xmlns="http://www.w3.org/2000/svg" width="67" height="62" viewBox="0 0 17.727 16.404"><g transform="translate(21.297 -21.411) scale(.73383)" stroke-width=".433" stroke="#000"><path d="M32.225 38.45l.105 2.213c.176 3.679 4.774 2.748 4.99.76l.335-3.102c.254-2.34-5.575-2.903-5.43.13zm-3.088 11.644c.662-4.332.323-3.813.662-4.332.718-1.104 2.06-1.177 2.894-1.522.799-.33 1.036 1.969 1.732 2.856.126.161.09-2.851.17-2.823h.455" fill="none"/><path d="M40.305 45.868c-.25-.99-1.912-1.308-2.906-1.628-.824-.264-1.037 1.969-1.733 2.856-.126.161-.09-2.851-.17-2.823h-.455m6.513-5.265s-.135 1.94.083 2.872c1.01 4.337 5.539 3.24 6.2.698.315-1.21.39-3.728.39-3.728.3-2.866-6.85-3.554-6.673.158zm-4.497 14.269c0-.255.432-5.379 1.857-6.029 3.007-1.37 8.722-1.416 11.799-.035 1.715.77 1.986 5.899 1.986 6.057" fill="none"/><path d="M52.01 45.763l2.526-2.993h6.08v-8.232h-10.43v8.302h2.667" fill="none" stroke-linecap="round" stroke-linejoin="round"/><rect ry=".055" y="38.233" x="53.086" height=".561" width=".865" stroke-linecap="round" stroke-linejoin="round"/><rect ry=".055" y="38.233" x="54.985" height=".561" width=".865" stroke-linecap="round" stroke-linejoin="round"/><rect ry=".055" y="38.233" x="56.895" height=".561" width=".865" stroke-linecap="round" stroke-linejoin="round"/></g><g stroke-width=".289" stroke="#000"><path d="M26.123 7.306s.277.04.364.136c.116.128.051.349.136.499.048.084.136.281.201.21.205-.222-.039-1.061.084-1.409.036-.1.152-.224.253-.194.37.112.747.274 1.083.281.52.01.864-.246 1.119-.306.148-.035.332.108.38.253.121.378-.106.954.112 1.182.094.098.19-.082.25-.161.08-.11.041-.277.111-.394.06-.099.251-.239.251-.239" fill="none" stroke-width=".318"/><path d="M27.035 9.751s-.217.47-.409.631c-.807.681-2.322.375-2.91 1.252-.444.386-.592 3.025-.521 3.536.912.527 1.953 1.224 2.645 1.623.436.252.668-.65.857-1.064.066-.145.209-.37.084-.469-.77-.612-.936-.54-1.789-1.133-.188-.131.11-1.224 0-1.228m4.534-3.061s.336.515.56.602c.651.254 1.838.7 1.838.7m-4.211 3.76l.213-3.266c.008-.11-.116-.148-.163-.286-.035-.102-.098-.5.049-.5l.938-.003c.143-.001.125.329.088.491-.022.096-.177.14-.172.239l.167 3.318" fill="none" stroke-linecap="round" stroke-linejoin="round" stroke-width=".318"/><g stroke-width=".317" fill="none"><path d="M28.755 9.521h1.35l.438-.653" stroke-linecap="round" stroke-linejoin="round"/><path d="M28.646 9.207c.116 0 .101.119.101.18 0 .223.02.32-.073.32h-.736c-.139 0-.165.012-.165-.275 0-.221-.008-.23.15-.23l.723.005z"/></g><path d="M26.123 7.306V5.859c.275-1.65 3.532-2.148 4.228-.15.156.445.018.946.1 1.41.023.125.113.238.105.363-.01.177-.001.354-.025.517-.076.51-.436.942-.728 1.368-.047.07-.125.117-.164.19-.036.07 0 .174-.059.228-1.54 1.424-2.857-.053-3.452-1.582-.081-.209-.005-.896-.005-.897z" fill="none" stroke-linecap="round" stroke-linejoin="round" stroke-width=".318"/><path d="M26.763 15.588c.003.017.85-.05 1.189.04.224.059.575.323.778.612a.36.36 0 01.043.32c-.11.287-.326.707-.555.778-.215.067-.588-.054-.878-.1-.423-.068-1.12-.494-1.12-.494" fill="none" stroke-width=".318"/><path d="M31.631 7.94l1.358-.695V4.84h5.522v3.881h-5.542v-.825zm2.223-1.93h3.79m-3.79.779h3.79m-3.79.778h1.787m-3.628 7.096l1.068-3.988h6.47" fill="none" stroke-linecap="round" stroke-linejoin="round" stroke-width=".318"/><path d="M40.425 10.064l-1.369 5.107H36.38l.353 1.319h1.131l.717.716h-3.918l-.574-.573h1.243l-.374-1.395h-3.643l1.38-5.148z" fill="none" stroke-linecap="round" stroke-linejoin="round" stroke-width=".318"/><g transform="translate(-63.106 -88.81) scale(.61607)" stroke-width=".515" stroke-linecap="round" stroke-linejoin="round"><path d="M158.891 170.526h-7.69l-1.64-1.551-.006-.515" fill="none"/><rect ry=".099" width="1.711" height=".26" x="157.336" y="170.53"/></g><path d="M23.127 14.929h-1.73l3.868 2.947H41.49l-3.875-2.266v-.371" fill="none" stroke-linecap="round" stroke-width=".318"/><path d="M31.395 14.9h-5.114" fill="none" stroke-linejoin="round" stroke-width=".318"/></g><g stroke-width="3.752" color="#000" font-weight="400" font-family="sans-serif"><path style="line-height:normal;font-variant-ligatures:normal;font-variant-position:normal;font-variant-caps:normal;font-variant-numeric:normal;font-variant-alternates:normal;font-feature-settings:normal;text-indent:0;text-align:start;text-decoration-line:none;text-decoration-style:solid;text-decoration-color:#000;text-transform:none;text-orientation:mixed;white-space:normal;shape-padding:0;isolation:auto;mix-blend-mode:normal;solid-color:#000;solid-opacity:1" d="M4.307 4.863a.934.934 0 00-.356 0c-.115.025-.24.086-.292.217-.166.414-.272 1.144-.272 1.876 0 .731.088 1.453.447 1.842.083.09.19.1.284.097a.992.992 0 00.283-.058c.094-.032.185-.074.264-.123a.55.55 0 00.2-.18c.086-.14.07-.286.05-.445a1.836 1.836 0 00-.127-.47l-.028-.063-.066-.024S4.598 7.5 4.5 7.445c-.099-.053-.177-.143-.175-.137a2.55 2.55 0 01-.045-.844c.001-.005-.001-.004.013-.017a.484.484 0 01.087-.056c.083-.045.212-.09.298-.228.18-.289.236-.614.19-.897-.023-.137-.12-.224-.222-.284a1 1 0 00-.338-.12zm-.289.31a.667.667 0 01.235.003.725.725 0 01.23.079c.057.033.07.064.07.062.033.204-.007.456-.146.678a.69.69 0 01-.178.116.697.697 0 00-.153.103.356.356 0 00-.111.208 2.73 2.73 0 00.051.963c.049.194.207.272.332.34.084.045.118.055.162.072.038.102.075.222.09.333.017.128-.008.242-.005.237a.452.452 0 01-.096.077 1.047 1.047 0 01-.2.093.731.731 0 01-.192.04c-.048.002-.058-.014-.04.005-.228-.246-.362-.927-.362-1.626 0-.7.116-1.427.248-1.757-.001.004.007-.013.065-.025z" overflow="visible"/><path style="line-height:normal;font-variant-ligatures:normal;font-variant-position:normal;font-variant-caps:normal;font-variant-numeric:normal;font-variant-alternates:normal;font-feature-settings:normal;text-indent:0;text-align:start;text-decoration-line:none;text-decoration-style:solid;text-decoration-color:#000;text-transform:none;text-orientation:mixed;white-space:normal;shape-padding:0;isolation:auto;mix-blend-mode:normal;solid-color:#000;solid-opacity:1" d="M2.626 6.348a.738.738 0 00-.491.218 1.23 1.23 0 00-.294.424c-.403.967-.59 2.625-.636 3.684-.006.13.056.239.135.337.08.098.186.19.311.286.251.192.582.39.93.595.676.397 1.413.83 1.681 1.144.006.097.073 1.28.014 1.948a.159.159 0 10.316.029c.067-.754-.016-2.055-.016-2.055a.159.159 0 00-.033-.088c-.34-.435-1.11-.846-1.801-1.252-.346-.203-.67-.4-.898-.573a1.583 1.583 0 01-.258-.235c-.053-.066-.064-.11-.064-.122.046-1.035.246-2.699.612-3.576a.947.947 0 01.216-.313.436.436 0 01.278-.133c.05 0 .122.028.184.08.062.053.11.128.125.186.074.277-.02.922-.124 1.512-.051.295-.102.58-.123.821-.022.241-.044.437.083.601.155.2.418.27.701.333.283.062.594.098.838.139.712.118 1.486.07 2.218.032.731-.04 1.421-.067 1.943.065.392.099.918.215 1.352.357.217.071.41.15.547.229.136.079.2.159.209.193.096.392.163 1.345.198 2.179.036.833.045 1.56.045 1.56a.159.159 0 10.317-.004s-.009-.731-.044-1.57c-.036-.839-.093-1.772-.208-2.24-.044-.18-.188-.294-.357-.393a3.39 3.39 0 00-.608-.256c-.458-.15-.99-.266-1.373-.363-.594-.15-1.305-.113-2.038-.074-.733.038-1.488.081-2.149-.028-.255-.043-.561-.08-.822-.136-.26-.057-.468-.152-.517-.216a1.256 1.256 0 01-.02-.38c.02-.219.07-.5.121-.795.103-.59.232-1.218.118-1.648a.693.693 0 00-.226-.345.602.602 0 00-.392-.157z" overflow="visible"/><path style="line-height:normal;font-variant-ligatures:normal;font-variant-position:normal;font-variant-caps:normal;font-variant-numeric:normal;font-variant-alternates:normal;font-feature-settings:normal;text-indent:0;text-align:start;text-decoration-line:none;text-decoration-style:solid;text-decoration-color:#000;text-transform:none;text-orientation:mixed;white-space:normal;shape-padding:0;isolation:auto;mix-blend-mode:normal;solid-color:#000;solid-opacity:1" d="M9.622 12.785a.159.159 0 00-.157.16v2.014a.159.159 0 10.318 0v-2.013a.159.159 0 00-.161-.161zM7.066 4.562c-1.026-.031-2.064.446-2.01 1.562l.07 1.48c.031.65.263 1.121.606 1.419.342.297.783.418 1.216.41.432-.008.86-.14 1.199-.367.339-.225.593-.551.636-.943l.225-2.076c.099-.915-.916-1.454-1.942-1.485zm-.013.323c.858.042 1.71.475 1.639 1.127L8.467 8.09c-.03.274-.213.525-.496.713a1.97 1.97 0 01-1.029.314c-.37.006-.73-.096-1.002-.333-.272-.237-.469-.611-.497-1.194l-.07-1.48c-.044-.915.821-1.265 1.68-1.224zm3.25-3.638a.159.159 0 00-.159.159V6.01a.159.159 0 00.159.159h1.583a.159.159 0 100-.318h-1.424V1.564h5.743V5.8l-3.447.054a.159.159 0 00-.11.047c-.575.574-.9 1.08-1.45 1.63a.159.159 0 10.225.225c.558-.559.886-1.053 1.41-1.586l3.533-.055a.159.159 0 00.157-.159v-4.55a.159.159 0 00-.16-.158z" overflow="visible"/><path style="line-height:normal;font-variant-ligatures:normal;font-variant-position:normal;font-variant-caps:normal;font-variant-numeric:normal;font-variant-alternates:normal;font-feature-settings:normal;text-indent:0;text-align:start;text-decoration-line:none;text-decoration-style:solid;text-decoration-color:#000;text-transform:none;text-orientation:mixed;white-space:normal;shape-padding:0;isolation:auto;mix-blend-mode:normal;solid-color:#000;solid-opacity:1" d="M11.332 2.339a.159.159 0 100 .317h4.003a.159.159 0 100-.317zm0 .769a.159.159 0 100 .317h4.003a.159.159 0 100-.317zm0 .769a.159.159 0 100 .317h4.003a.159.159 0 100-.317zm0 .769a.159.159 0 100 .317h1.9a.159.159 0 100-.317z" overflow="visible"/></g></svg>