<svg xmlns="http://www.w3.org/2000/svg" viewBox="0 0 480.001 480.001"><path d="M123.584 102.504A47.611 47.611 0 0089.232 88h-2.464a47.611 47.611 0 00-34.312 14.504 44.002 44.002 0 00-12.416 32.624l.936 21.536c1.418 24.644 22.039 43.772 46.72 43.336h.608c24.681.436 45.302-18.692 46.72-43.336l.976-21.536a44.002 44.002 0 00-12.416-32.624zM119.04 156c-1.084 16.063-14.642 28.414-30.736 28h-.608c-16.094.414-29.652-11.937-30.736-28l-.28-6.536a72.198 72.198 0 0041.824-15.696 35.729 35.729 0 0020.864 14.632l-.328 7.6zm-10.032-37.816a8 8 0 00-6.4-6.816 7.929 7.929 0 00-8.496 3.84c-.104.168-10.032 15.872-38.048 18.272A28.213 28.213 0 0164 113.6a31.625 31.625 0 0122.768-9.6h2.464A31.625 31.625 0 01112 113.6a28.191 28.191 0 017.808 17.968 18.927 18.927 0 01-10.8-13.384zm326.576 176.32A47.611 47.611 0 00401.232 280h-2.464a47.611 47.611 0 00-34.312 14.504 43.998 43.998 0 00-12.416 32.624l.936 21.536c1.418 24.644 22.039 43.772 46.72 43.336h.608c24.681.436 45.302-18.692 46.72-43.336l.976-21.536a44.002 44.002 0 00-12.416-32.624zM432 326.48l-.96 21.52c-1.084 16.063-14.642 28.414-30.736 28h-.608c-16.094.414-29.652-11.937-30.736-28l-.96-21.56a28.236 28.236 0 018-20.84 31.625 31.625 0 0122.768-9.6h2.464A31.625 31.625 0 01424 305.6a28.239 28.239 0 018 20.88z"/><path d="M247.134 116.344c-8.584-8.303-22.206-8.303-30.79 0l-89.312 89.312a8 8 0 01-5.664 2.344H40c-22.08.026-39.974 17.92-40 40v112c0 13.255 10.745 24 24 24 2.725 0 5.43-.463 8-1.368V392a8 8 0 008 8h96a8 8 0 008-8V262.288a8.004 8.004 0 012.144-5.456l101.512-109.176c8.503-8.79 8.269-22.809-.522-31.312zm-10.903 20.125l-.087.083L134.4 245.944a24.002 24.002 0 00-6.4 16.344V384H48V264a8 8 0 00-16 0v96a8 8 0 01-16 0V248c0-13.255 10.745-24 24-24h81.368a23.825 23.825 0 0016.976-7.032l89.312-89.312a6.312 6.312 0 018.688 0 6.232 6.232 0 01-.113 8.813z"/><path d="M88 232a8 8 0 00-8 8v96a8 8 0 0016 0v-96a8 8 0 00-8-8zm171.544 62.504A47.611 47.611 0 00225.232 280h-2.464a47.611 47.611 0 00-34.312 14.504 43.998 43.998 0 00-12.416 32.624l.936 21.536c1.418 24.644 22.039 43.772 46.72 43.336h.608c24.681.436 45.302-18.692 46.72-43.336l.936-21.536a43.998 43.998 0 00-12.416-32.624zM256 326.48l-.96 21.52c-1.084 16.063-14.642 28.414-30.736 28h-.608c-16.094.414-29.652-11.937-30.736-28l-.96-21.56a28.236 28.236 0 018-20.84 31.625 31.625 0 0122.768-9.6h2.464A31.625 31.625 0 01248 305.6a28.239 28.239 0 018 20.88zm9.336 73.52h-82.672c-21.344.022-38.642 17.32-38.664 38.664V472a8 8 0 0016 0v-33.336c.013-12.512 10.153-22.651 22.664-22.664h82.672c12.512.013 22.651 10.152 22.664 22.664V472a8 8 0 0016 0v-33.336c-.022-21.344-17.32-38.642-38.664-38.664zm176 0h-82.672c-21.344.022-38.642 17.32-38.664 38.664V472a8 8 0 0016 0v-33.336c.013-12.512 10.153-22.651 22.664-22.664h82.672c12.512.013 22.651 10.152 22.664 22.664V472a8 8 0 0016 0v-33.336c-.022-21.344-17.32-38.642-38.664-38.664zM456.4 0H175.6c-13.137.128-23.693 10.863-23.6 24v120a8 8 0 0016 0V48h296v192a7.816 7.816 0 01-7.6 8h-273a8 8 0 000 16h273c13.137-.128 23.693-10.863 23.6-24V24c.093-13.137-10.463-23.872-23.6-24zm7.6 32H168v-8a7.816 7.816 0 017.6-8h280.8a7.816 7.816 0 017.6 8v8z"/><path d="M440 102a8 8 0 00-8 8v114a8 8 0 0016 0V110a8 8 0 00-8-8zm-32 50a8 8 0 00-8 8v64a8 8 0 0016 0v-64a8 8 0 00-8-8zm-32-16a8 8 0 00-8 8v80a8 8 0 0016 0v-80a8 8 0 00-8-8zm-32 48a8 8 0 00-8 8v32a8 8 0 0016 0v-32a8 8 0 00-8-8z"/><path d="M444.44 65.344a8.001 8.001 0 00-11.096 2.216l-27.312 40.96L380.8 89.6a8 8 0 00-12 2.824l-31.152 62.312L307.2 177.6a8 8 0 00-1.6 11.2 8 8 0 0011.2 1.6l32-24a8.066 8.066 0 002.4-2.824l27.704-55.424L403.2 126.4a8 8 0 0011.456-1.96l32-48a8.001 8.001 0 00-2.216-11.096zM288 64h-96a8 8 0 000 16h96a8 8 0 000-16zm48 0h-16a8 8 0 000 16h16a8 8 0 000-16z"/></svg>