<svg xmlns="http://www.w3.org/2000/svg" width="98" height="62" viewBox="0 0 25.929 16.404"><g stroke-width=".433" color="#000" font-weight="400" font-family="sans-serif"><path style="line-height:normal;font-variant-ligatures:normal;font-variant-position:normal;font-variant-caps:normal;font-variant-numeric:normal;font-variant-alternates:normal;font-feature-settings:normal;text-indent:0;text-align:start;text-decoration-line:none;text-decoration-style:solid;text-decoration-color:#000;text-transform:none;text-orientation:mixed;white-space:normal;shape-padding:0;isolation:auto;mix-blend-mode:normal;solid-color:#000;solid-opacity:1" d="M5.709 2.589c-1.117-.035-2.245.482-2.188 1.696l.076 1.623c.034.709.288 1.22.66 1.543.372.323.852.455 1.323.447a2.468 2.468 0 001.305-.4c.369-.246.645-.598.691-1.022l.247-2.277c.107-.99-.998-1.575-2.114-1.61zm-.013.324c.949.045 1.889.523 1.81 1.251L7.26 6.442c-.033.305-.24.584-.552.792a2.17 2.17 0 01-1.135.346c-.409.007-.808-.106-1.11-.369-.301-.262-.518-.677-.548-1.318l-.078-1.624c-.048-1.012.909-1.401 1.858-1.356zM4.282 8.37a.437.437 0 00-.32.01c-.564.232-1.622.292-2.196 1.175a.91.91 0 00-.132.255c-.026.092-.033.185-.048.36-.03.35-.087 1.04-.33 2.627l.315.048c.243-1.592.303-2.3.332-2.65a2.16 2.16 0 01.036-.3.628.628 0 01.093-.167c.48-.737 1.391-.783 2.051-1.056.042-.018.058-.015.083-.005.026.01.064.037.106.09.085.107.178.306.267.538.177.464.338 1.054.63 1.425a.16.16 0 00.055.046.345.345 0 00.056.017l.063-.004s.037-.014.05-.023a.178.178 0 00.059-.066c.022-.045.022-.067.027-.098.01-.061.017-.14.023-.238.012-.195.02-.46.026-.728.006-.268.01-.54.017-.74.003-.075.007-.127.01-.177h.198v-.318h-.335l.054.01-.093-.006-.067.036s-.024.024-.03.033c-.007.01-.01.018-.013.024-.013.026-.014.038-.016.052a.729.729 0 00-.012.084 7.013 7.013 0 00-.013.251c-.007.205-.012.477-.018.744l-.013.394c-.121-.279-.249-.532-.363-.831-.092-.241-.185-.46-.314-.622a.577.577 0 00-.238-.19z" overflow="visible"/><path style="line-height:normal;font-variant-ligatures:normal;font-variant-position:normal;font-variant-caps:normal;font-variant-numeric:normal;font-variant-alternates:normal;font-feature-settings:normal;text-indent:0;text-align:start;text-decoration-line:none;text-decoration-style:solid;text-decoration-color:#000;text-transform:none;text-orientation:mixed;white-space:normal;shape-padding:0;isolation:auto;mix-blend-mode:normal;solid-color:#000;solid-opacity:1" d="M7.524 8.375a.458.458 0 00-.32.013.617.617 0 00-.234.193c-.129.164-.222.38-.313.618-.112.294-.237.543-.357.817-.004-.133-.009-.249-.012-.397-.007-.267-.01-.539-.018-.744a5.089 5.089 0 00-.014-.25c-.003-.032-.005-.058-.01-.085-.003-.014-.004-.026-.016-.052a.198.198 0 00-.043-.057l-.067-.036-.093.006.053-.01h-.334v.318h.198c.003.05.006.102.008.178.007.2.013.471.019.74.006.267.012.532.024.727.006.098.013.177.023.238.005.031.006.054.029.098a.163.163 0 00.059.066.356.356 0 00.048.023l.065.004s.04-.01.054-.017a.162.162 0 00.056-.046c.29-.37.449-.949.624-1.406.087-.229.18-.426.266-.536a.323.323 0 01.113-.1c.03-.012.051-.016.095-.002.375.12.856.238 1.257.409.401.17.699.387.771.673l.307-.077c-.112-.44-.517-.703-.953-.889-.437-.186-.93-.303-1.285-.417zm5.49-5.72c-1.352-.043-2.717.576-2.647 2.04-.002.016-.026.35-.03.786-.005.447.007.976.094 1.349.384 1.645 1.48 2.31 2.533 2.272 1.052-.04 2.062-.743 2.326-1.756.242-.929.289-2.742.29-2.759.123-1.183-1.215-1.889-2.566-1.932zM13 2.98c1.184.054 2.36.653 2.263 1.574v.006l-.001.005s-.061 1.86-.28 2.7c-.222.854-1.116 1.486-2.032 1.52-.917.034-1.852-.49-2.21-2.027-.073-.311-.091-.836-.086-1.272.004-.437.028-.789.028-.789l.002-.01-.002-.008C10.622 3.418 11.816 2.926 13 2.98zm-.104 6.824c-1.623.007-3.237.266-4.374.784-.33.15-.552.512-.735.95-.184.439-.323.966-.429 1.484a17.451 17.451 0 00-.275 1.897c-.01.124-.017.192-.017.238h.318s.004-.09.014-.21.028-.283.05-.475c.046-.383.117-.88.221-1.386.104-.505.241-1.02.412-1.426.17-.407.38-.695.573-.782 1.069-.488 2.654-.748 4.244-.756 1.59-.007 3.189.238 4.284.73.256.115.49.42.678.837.187.416.329.934.431 1.44a14.492 14.492 0 01.244 1.833l.01.19h.318a14.588 14.588 0 00-.052-.68 14.83 14.83 0 00-.209-1.406c-.105-.52-.25-1.056-.453-1.508-.203-.451-.465-.828-.838-.996-1.163-.522-2.792-.765-4.415-.758z" overflow="visible"/><path style="line-height:normal;font-variant-ligatures:normal;font-variant-position:normal;font-variant-caps:normal;font-variant-numeric:normal;font-variant-alternates:normal;font-feature-settings:normal;text-indent:0;text-align:start;text-decoration-line:none;text-decoration-style:solid;text-decoration-color:#000;text-transform:none;text-orientation:mixed;white-space:normal;shape-padding:0;isolation:auto;mix-blend-mode:normal;solid-color:#000;solid-opacity:1" d="M16.843 1.248a.159.159 0 00-.141.157v6.093a.159.159 0 00.159.159h1.956a.16.16 0 100-.318h-1.799V1.564h7.337v5.723h-4.302a.159.159 0 00-.122.058L18.077 9.54a.159.159 0 10.243.205l1.806-2.14h4.388a.159.159 0 00.16-.159v-6.04a.159.159 0 00-.16-.158h-7.653a.159.159 0 00-.018 0z" overflow="visible" opacity=".92"/><path style="line-height:normal;font-variant-ligatures:normal;font-variant-position:normal;font-variant-caps:normal;font-variant-numeric:normal;font-variant-alternates:normal;font-feature-settings:normal;text-indent:0;text-align:start;text-decoration-line:none;text-decoration-style:solid;text-decoration-color:#000;text-transform:none;text-orientation:mixed;white-space:normal;shape-padding:0;isolation:auto;mix-blend-mode:normal;solid-color:#000;solid-opacity:1" d="M19.03 3.96a.202.202 0 00-.201.198v.33c0 .108.092.2.2.2h.553c.108 0 .2-.092.2-.2v-.33a.203.203 0 00-.2-.199zm.117.316h.318v.095h-.318zm1.275-.316c-.107 0-.2.09-.2.198v.33c0 .108.093.2.2.2h.554a.203.203 0 00.199-.2v-.33a.203.203 0 00-.2-.199zm.118.316h.317v.095h-.317zm1.283-.316c-.108 0-.2.09-.2.198v.33c0 .108.092.2.2.2h.554c.108 0 .2-.092.2-.2v-.33a.203.203 0 00-.2-.199zm.119.316h.316v.095h-.316z" overflow="visible" opacity=".92"/></g><g stroke-width=".289" stroke="#000"><path d="M-22.572 6.64s.276.04.364.136c.116.128.05.349.136.499.048.084.136.281.201.21.205-.222-.039-1.061.084-1.409.036-.1.152-.224.253-.194.37.112.747.274 1.082.281.521.01.865-.246 1.12-.306.147-.035.332.108.379.253.122.378-.105.954.113 1.182.094.098.19-.082.25-.161.08-.11.04-.277.111-.394.06-.099.251-.239.251-.239" fill="none" stroke-width=".318"/><path d="M-21.66 9.085s-.217.47-.409.63c-.807.682-2.322.376-2.91 1.253-.444.386-.592 3.025-.521 3.536.912.527 1.953 1.224 2.645 1.623.436.252.668-.65.857-1.064.066-.145.209-.37.084-.469-.77-.612-.936-.54-1.789-1.133-.189-.131.11-1.224 0-1.229m4.534-3.06s.336.515.56.602c.651.254 1.838.7 1.838.7m-4.211 3.761l.213-3.267c.007-.11-.116-.148-.164-.286-.035-.102-.097-.5.05-.5l.938-.003c.143-.001.125.329.088.491-.022.096-.177.14-.172.239l.167 3.318" fill="none" stroke-linecap="round" stroke-linejoin="round" stroke-width=".318"/><g stroke-width=".317" fill="none"><path d="M-19.94 8.855h1.35l.438-.653" stroke-linecap="round" stroke-linejoin="round"/><path d="M-20.05 8.541c.117 0 .102.119.102.18 0 .223.02.32-.074.32h-.735c-.14 0-.166.012-.166-.275 0-.221-.008-.23.15-.23l.724.005z"/></g><path d="M-22.572 6.64V5.193c.274-1.65 3.532-2.148 4.228-.15.155.445.018.946.1 1.41.022.125.113.238.105.363-.01.177-.001.354-.025.517-.076.51-.436.942-.728 1.368-.047.07-.125.117-.164.19-.037.07 0 .174-.06.228-1.54 1.424-2.856-.053-3.451-1.582-.082-.209-.005-.896-.005-.897z" fill="none" stroke-linecap="round" stroke-linejoin="round" stroke-width=".318"/><path d="M-21.932 14.922c.003.017.85-.05 1.189.04.224.059.575.323.778.612a.36.36 0 01.043.32c-.11.287-.326.707-.555.778-.215.067-.588-.054-.879-.1-.422-.068-1.12-.494-1.12-.494" fill="none" stroke-width=".318"/><path d="M-17.064 7.274l1.358-.695V4.175h5.522v3.881h-5.542v-.825zm2.224-1.93h3.788m-3.788.779h3.788m-3.788.777h1.786m-3.628 7.097l1.068-3.988h6.47" fill="none" stroke-linecap="round" stroke-linejoin="round" stroke-width=".318"/><path d="M-8.27 9.398l-1.369 5.107h-2.677l.353 1.319h1.131l.717.716h-3.919l-.573-.573h1.243l-.374-1.395h-3.643l1.38-5.148z" fill="none" stroke-linecap="round" stroke-linejoin="round" stroke-width=".318"/><g stroke-width=".317" stroke-linecap="round" stroke-linejoin="round"><path d="M-13.912 15.58h-4.738l-1.01-.956-.004-.317" fill="none"/><path d="M-14.81 15.583h.932a.06.06 0 01.061.06v.039a.06.06 0 01-.06.06h-.933a.06.06 0 01-.06-.06v-.038a.06.06 0 01.06-.061z"/></g><path d="M-25.568 14.263h-1.73l3.867 2.947h16.227l-3.875-2.266v-.371" fill="none" stroke-linecap="round" stroke-width=".318"/><path d="M-17.3 14.235h-5.114" fill="none" stroke-linejoin="round" stroke-width=".318"/></g><g stroke-width="3.752" color="#000" font-weight="400" font-family="sans-serif"><path style="line-height:normal;font-variant-ligatures:normal;font-variant-position:normal;font-variant-caps:normal;font-variant-numeric:normal;font-variant-alternates:normal;font-feature-settings:normal;text-indent:0;text-align:start;text-decoration-line:none;text-decoration-style:solid;text-decoration-color:#000;text-transform:none;text-orientation:mixed;white-space:normal;shape-padding:0;isolation:auto;mix-blend-mode:normal;solid-color:#000;solid-opacity:1" d="M-53.28 4.757a.934.934 0 00-.355 0c-.115.026-.24.087-.292.218-.166.413-.272 1.143-.272 1.875s.088 1.454.447 1.842c.083.09.19.1.285.097a.992.992 0 00.282-.057c.094-.032.185-.074.264-.123.08-.05.15-.1.2-.181.086-.14.07-.285.05-.445a1.836 1.836 0 00-.127-.469l-.028-.064-.066-.023s-.096-.034-.195-.088c-.099-.053-.176-.143-.175-.137a2.55 2.55 0 01-.045-.844c.001-.005-.001-.004.013-.017a.484.484 0 01.087-.056c.083-.044.212-.09.298-.227.18-.29.236-.614.19-.898-.023-.136-.12-.224-.222-.284a1 1 0 00-.338-.119zm-.288.31a.667.667 0 01.235.003.725.725 0 01.23.08c.057.033.07.063.07.062.033.203-.007.455-.146.678a.69.69 0 01-.178.116.697.697 0 00-.152.102.356.356 0 00-.112.208c-.042.311-.02.682.051.964.049.193.207.271.332.339.084.045.118.055.162.072.039.103.075.223.09.334.017.128-.008.241-.005.236a.452.452 0 01-.096.077 1.047 1.047 0 01-.2.093.731.731 0 01-.192.041c-.048.002-.057-.014-.04.004-.228-.246-.362-.927-.362-1.626 0-.699.116-1.426.249-1.757-.002.004.006-.013.064-.025z" overflow="visible"/><path style="line-height:normal;font-variant-ligatures:normal;font-variant-position:normal;font-variant-caps:normal;font-variant-numeric:normal;font-variant-alternates:normal;font-feature-settings:normal;text-indent:0;text-align:start;text-decoration-line:none;text-decoration-style:solid;text-decoration-color:#000;text-transform:none;text-orientation:mixed;white-space:normal;shape-padding:0;isolation:auto;mix-blend-mode:normal;solid-color:#000;solid-opacity:1" d="M-54.96 6.243a.738.738 0 00-.491.218 1.23 1.23 0 00-.294.423c-.403.968-.589 2.625-.636 3.684-.006.13.056.24.135.337.08.098.186.191.312.287.25.19.581.39.929.594.676.397 1.413.83 1.681 1.145.006.096.074 1.279.014 1.948a.159.159 0 10.316.028c.067-.754-.016-2.055-.016-2.055a.159.159 0 00-.033-.088c-.34-.435-1.11-.846-1.801-1.252-.346-.203-.67-.4-.898-.573a1.583 1.583 0 01-.257-.234c-.054-.066-.065-.111-.065-.123.046-1.034.246-2.698.612-3.576a.947.947 0 01.216-.313.436.436 0 01.278-.133c.05 0 .122.028.184.08.062.054.11.128.125.186.074.278-.02.922-.124 1.512-.051.295-.102.58-.123.821-.022.241-.043.437.083.601.155.201.418.271.701.333s.595.099.838.14c.712.117 1.486.07 2.218.031.731-.039 1.421-.066 1.943.065.392.099.918.215 1.352.358.217.07.41.149.547.228.136.08.2.159.209.194.096.391.163 1.345.199 2.178.035.833.044 1.56.044 1.56a.159.159 0 10.317-.004s-.009-.73-.044-1.57c-.036-.838-.093-1.772-.208-2.24-.044-.18-.188-.294-.357-.393a3.32 3.32 0 00-.608-.255c-.458-.15-.99-.267-1.373-.364-.594-.15-1.305-.113-2.038-.074-.733.039-1.488.082-2.149-.028-.255-.043-.561-.08-.822-.136-.26-.057-.468-.152-.517-.216a1.256 1.256 0 01-.02-.38c.02-.218.07-.5.121-.794.103-.59.232-1.22.118-1.649a.693.693 0 00-.226-.345.602.602 0 00-.392-.156z" overflow="visible"/><path style="line-height:normal;font-variant-ligatures:normal;font-variant-position:normal;font-variant-caps:normal;font-variant-numeric:normal;font-variant-alternates:normal;font-feature-settings:normal;text-indent:0;text-align:start;text-decoration-line:none;text-decoration-style:solid;text-decoration-color:#000;text-transform:none;text-orientation:mixed;white-space:normal;shape-padding:0;isolation:auto;mix-blend-mode:normal;solid-color:#000;solid-opacity:1" d="M-47.964 12.68a.159.159 0 00-.157.16v2.013a.159.159 0 10.318 0V12.84a.159.159 0 00-.161-.16zm-2.556-8.223c-1.026-.032-2.064.445-2.01 1.56l.07 1.482c.031.649.263 1.12.606 1.418.342.298.783.418 1.216.41.432-.007.86-.14 1.199-.366.339-.226.594-.552.636-.943l.225-2.077c.099-.914-.916-1.453-1.942-1.484zm-.013.323c.858.041 1.71.474 1.639 1.127l-.225 2.076c-.03.274-.213.525-.496.714a1.97 1.97 0 01-1.029.313c-.37.006-.73-.096-1.002-.333-.272-.236-.469-.61-.497-1.193l-.07-1.481c-.044-.915.821-1.265 1.68-1.223zm3.25-3.639a.159.159 0 00-.159.159v4.605a.159.159 0 00.16.16h1.582a.159.159 0 100-.318h-1.424V1.459h5.743v4.234l-3.447.054a.159.159 0 00-.11.047c-.575.574-.9 1.08-1.45 1.63a.159.159 0 10.225.225c.558-.558.886-1.053 1.41-1.585l3.533-.056a.159.159 0 00.157-.158V1.3a.159.159 0 00-.159-.159z" overflow="visible"/><path style="line-height:normal;font-variant-ligatures:normal;font-variant-position:normal;font-variant-caps:normal;font-variant-numeric:normal;font-variant-alternates:normal;font-feature-settings:normal;text-indent:0;text-align:start;text-decoration-line:none;text-decoration-style:solid;text-decoration-color:#000;text-transform:none;text-orientation:mixed;white-space:normal;shape-padding:0;isolation:auto;mix-blend-mode:normal;solid-color:#000;solid-opacity:1" d="M-46.254 2.233a.159.159 0 100 .317h4.003a.159.159 0 100-.317zm0 .769a.159.159 0 100 .317h4.003a.159.159 0 100-.317zm0 .768a.159.159 0 100 .318h4.003a.159.159 0 100-.317zm0 .77a.159.159 0 100 .317h1.9a.159.159 0 100-.317z" overflow="visible"/></g></svg>